<?xml version="1.0" encoding="utf-8"?>
<!-- Generator: Adobe Illustrator 27.5.0, SVG Export Plug-In . SVG Version: 6.00 Build 0)  -->
<svg version="1.1" id="Layer_1" xmlns="http://www.w3.org/2000/svg" xmlns:xlink="http://www.w3.org/1999/xlink" x="0px" y="0px"
	 viewBox="0 0 4000 4000" style="enable-background:new 0 0 4000 4000;" xml:space="preserve">
<g>
	<g>
		<rect style="fill:#67E9FF;" width="4000" height="4000"/>
	</g>
	<g>
		<g>
			<g>
				<path style="fill:#FFFFFF;" d="M2613.882,2647.49l53.051-29.548c22.539-12.554,35.927-36.879,34.476-62.637l-9.775-173.464
					c0,0-194.377,134.445-183.039,132.825"/>
			</g>
			<g>
				<path style="fill:#371A45;" d="M2613.903,2666.932c-6.826,0-13.442-3.599-17.002-9.983c-5.225-9.377-1.855-21.216,7.524-26.438
					l53.047-29.548c15.923-8.872,25.552-26.362,24.526-44.563l-9.775-173.464c-0.601-10.718,7.598-19.897,18.315-20.5
					c10.586-0.601,19.897,7.59,20.503,18.313l9.775,173.464c1.855,32.966-15.586,64.646-44.429,80.713l-53.047,29.546
					C2620.348,2666.141,2617.101,2666.932,2613.903,2666.932z"/>
			</g>
			<g>
				<path style="fill:#FFFFFF;" d="M1475.264,1923.434l-14.88-216.035c-2.471-35.871,21.95-68.01,57.174-75.233
					c200.267-41.066,836.693-78.412,1053.326-57.945c36.214,3.421,64.953,31.883,68.654,68.069
					c4.936,48.254,11.537,120.975,14.84,192.459c5.669,122.701,37.256,375.392,37.256,375.392l25.327,129.117
					c9.436,48.105-18.794,95.615-65.555,110.329l-47.242,14.865l-1073.936-455.167"/>
			</g>
			<g>
				<path style="fill:#FFFFFF;" d="M1652.523,2768.976h-70.976c-46.803,0-84.745-37.941-84.745-84.745v-119.05l95.6-100.73
					l44.112,113.507"/>
			</g>
			<g>
				<path style="fill:#371A45;" d="M1652.521,2788.414h-70.977c-57.446,0-104.18-46.736-104.18-104.182v-119.05
					c0-10.735,8.701-19.438,19.438-19.438s19.438,8.704,19.438,19.438v119.05c0,36.011,29.292,65.305,65.303,65.305h70.977
					c10.737,0,19.438,8.704,19.438,19.438S1663.258,2788.414,1652.521,2788.414z"/>
			</g>
			<g>
				<path style="fill:#371A45;" d="M2604.162,2483.89c-2.588,0-5.166-0.518-7.583-1.543l-1073.936-455.168
					c-9.888-4.187-14.502-15.596-10.313-25.481c4.189-9.88,15.605-14.495,25.479-10.31l1067.349,452.373l40.41-12.717
					c37.368-11.755,59.858-49.604,52.319-88.042l-25.327-129.119c-0.088-0.442-0.161-0.886-0.215-1.331
					c-0.317-2.537-31.748-254.858-37.388-376.907c-3.276-70.972-9.834-143.245-14.756-191.377
					c-2.744-26.833-24.253-48.154-51.143-50.696c-205.996-19.47-842.373,15.552-1047.598,57.634
					c-25.562,5.242-43.481,28.823-41.689,54.856l14.883,216.035c0.742,10.71-7.344,19.99-18.052,20.728
					c-10.728,0.742-19.99-7.344-20.728-18.057l-14.883-216.035c-3.125-45.371,28.11-86.475,72.656-95.608
					c212.402-43.557,845.859-78.408,1059.063-58.254c45.303,4.277,81.538,40.212,86.162,85.442
					c4.976,48.623,11.602,121.672,14.922,193.54c5.425,117.471,35.239,358.704,37.041,373.21l25.195,128.452
					c11.362,57.896-22.515,114.905-78.794,132.612l-47.241,14.866C2608.092,2483.592,2606.125,2483.89,2604.162,2483.89z"/>
			</g>
			<g>
				<path style="fill:#FFFFFF;" d="M3175.147,1723.031c0,0,65.602,92.718-14.578,187.477
					c-80.181,94.759-128.775,82.61-128.775,82.61c-22.256,242.632-107.734,383.993-355.565,264.937c0-0.049-0.049-0.049-0.097-0.097
					c-6.22-2.964-12.537-6.123-18.952-9.427c-7.824-4.032-15.745-8.309-23.86-12.828c0,0,21.042,281.847,1.604,443.812
					s103.7,745.098,103.7,745.098s19.438,84.263-8.115,116.626c-8.601,10.108-19.244,18.952-29.788,26.338
					c-24.054,16.814-52.822,25.512-82.125,25.512h-329.421c-21.916,0-41.014-15.259-45.484-36.737
					c-7.386-35.377-10.982-89.511,20.264-130.962c5.394-7.192,11.857-13.947,19.487-20.216c0,0,0.146-3.984,0.049-11.128
					c-0.243-35.571-5.151-149.185-55.106-230.191c-51.51-83.534-103.02-256.773-116.48-303.812l-0.195-0.632v-0.049
					c-2.09-7.289-3.207-11.371-3.207-11.371c-0.146,8.698-0.292,17.445-0.389,26.289c-2.77,188.109,1.555,405.423,9.622,638.288
					c1.506,43.978-33.676,80.521-77.751,80.521h-431.275c-24.054,0-44.61-16.911-49.615-40.382
					c-8.601-40.285-11.031-102.292,37.126-145.783c20.264-18.369,49.566-33.434,91.114-42.229c0,0-64.776-332.872-89.074-595.281
					c-24.297-262.41-44.658-433.85-44.658-433.85l-254.197-141.021c0,0,99.618-431.033,374.177-525.792
					c274.558-94.759,777.51-46.165,777.51-46.165s138.64,29.983,294.871,216.245l101.174-192.774
					c35.134-80.86,78.334-103.263,107.491-65.116c9.282,12.149,14.044,27.164,14.724,42.423l3.304,73.717l119.882-71.239
					c24.297-11.905,47.768-18.223,69.83-14.87c2.333,0.34,4.665,0.875,6.852,1.507c27.602,7.921,43.638,36.932,36.737,65.748
					C3201.874,1695.478,3191.766,1710.493,3175.147,1723.031z"/>
			</g>
			<g style="opacity:0.25;">
				<path style="fill:#371A45;" d="M1774.819,1751.404c345.069,148.543,628.959,163.988,796.138-74.476l-62.84-35.589
					C2275.253,1786.771,2032.176,1836.197,1774.819,1751.404z"/>
			</g>
			<g>
				<path style="fill:#371A45;" d="M2011.471,2512.147c-58.154,0-116.841-2.925-175.947-8.784
					c-35.308-3.474-64.238-30.273-70.342-65.171c-3.511-19.827-6.738-40.203-9.58-60.525
					c-13.73-96.746-18.813-189.685-15.532-284.099c1.274-37.168,28.73-68.965,65.278-75.598
					c84.81-15.498,306.533-48.298,532.563-18.12c18.623,2.507,35.83,11.46,48.472,25.208c0.303,0.33,0.596,0.669,0.874,1.016
					c9.429,10.64,15.84,23.604,18.569,37.573c11.699,59.636,30.083,182.732,21.714,336.919c0,0.007,0,0.012,0,0.02
					c-1.973,35.764-27.798,66.13-62.798,73.843C2250.421,2499.544,2132.14,2512.147,2011.471,2512.147z M2142.199,2026.373
					c-146.118,0-271.313,19.138-329.883,29.844c-18.706,3.396-32.744,19.666-33.398,38.691
					c-3.198,92.119,1.768,182.832,15.176,277.332c2.788,19.897,5.938,39.807,9.375,59.214c3.115,17.805,17.866,31.45,35.879,33.223
					c177.681,17.61,351.641,8.127,517.041-28.215c18.018-3.97,31.318-19.607,32.334-38.02
					c8.14-149.966-9.692-269.453-21.045-327.327c-1.44-7.38-4.878-14.197-9.941-19.731c-0.2-0.22-0.4-0.444-0.591-0.674
					c-6.445-6.707-15.078-11.072-24.399-12.329C2267.814,2029.71,2203.17,2026.373,2142.199,2026.373z M2408.131,2399.513h0.049
					H2408.131z"/>
			</g>
			<g>
				<path style="fill:#371A45;" d="M2618.585,3609.659h-329.429c-31.074,0-58.198-21.953-64.492-52.197
					c-14.365-68.953-0.371-126.765,39.414-164.016c-0.132-31.182-4.102-144.18-52.256-222.273
					c-31.357-50.85-62.236-132.402-85.098-200.605c-0.293,150.601,3.159,328.157,10.435,538.44
					c0.928,26.619-8.75,51.829-27.251,70.979c-18.481,19.133-43.311,29.673-69.912,29.673h-431.309
					c-32.871,0-61.719-23.459-68.599-55.779c-7.822-36.741-10.903-90.159,18.862-135.955c21.733-33.44,57.29-57.141,105.85-70.608
					c-13.799-73.354-65.029-353.574-85.898-578.979c-20.747-224.05-38.828-383.367-43.472-423.486l-245.454-136.162
					c-7.583-4.207-11.46-12.925-9.512-21.375c1.04-4.49,26.104-111.357,85.649-231.619
					c79.805-161.169,183.931-267.739,301.123-308.186c275.4-95.051,765.015-49.141,785.723-47.139
					c0.752,0.073,1.499,0.19,2.236,0.349c5.693,1.23,135.981,31.023,286.841,200.925l87.559-166.846
					c25.078-57.498,55.303-89.954,87.441-93.877c19.844-2.432,38.701,6.57,53.042,25.337c11.338,14.849,17.803,33.298,18.701,53.359
					l1.855,41.313l91.963-54.683c0.454-0.271,0.918-0.522,1.396-0.754c30.356-14.851,56.924-20.298,81.274-16.628
					c20.132,3.032,37.505,14.006,48.911,30.903c11.748,17.4,15.645,39.312,10.693,60.112c-3.955,16.599-12.246,31.392-24.727,44.146
					c22.212,42.661,37.949,122.08-24.741,196.167c-56.88,67.222-100.977,85.039-125.952,88.982
					c-16.758,157.754-59.272,249.7-133.228,288.679c-65.332,34.443-151.001,24.187-261.191-31.47
					c4.961,80.986,14.78,282.754-0.796,412.576c-18.843,156.978,102.163,732.983,103.389,738.782
					c2.134,9.241,20.601,94.512-12.31,133.23c-8.74,10.288-20.005,20.273-33.481,29.683
					C2684.694,3599.627,2652.443,3609.659,2618.585,3609.659z M2108.517,2825.67c8.647,0,16.392,5.771,18.73,14.299
					c0.596,2.161,59.893,217.117,117.661,310.798c62.295,101.023,58.164,246.084,57.959,252.209
					c-0.19,5.605-2.793,10.857-7.139,14.404c-42.764,34.907-41.553,91.133-33.008,132.153c2.563,12.312,13.682,21.248,26.436,21.248
					h329.429c25.85,0,50.4-7.605,70.991-21.995c10.747-7.507,19.536-15.239,26.123-22.988c14.565-17.136,11.089-68.608,3.965-99.683
					c-5.127-24.28-123.623-588.494-104.023-751.787c18.984-158.22-1.494-437.263-1.704-440.063
					c-0.532-7.134,2.896-13.982,8.926-17.832c6.035-3.85,13.691-4.077,19.932-0.588c111.401,62.173,197.295,78.196,255.308,47.62
					c62.988-33.201,100.391-123.152,114.336-274.99c0.547-5.95,2.974-11.563,7.993-14.802c4.897-3.162,10.156-4.185,15.654-2.419
					c4.424,0.337,44.409,0.92,109.644-76.169c69.106-81.67,15.806-160.461,13.506-163.777c-5.962-8.574-4.126-20.393,4.209-26.68
					c12.773-9.634,20.498-20.671,23.608-33.748c2.441-10.247,0.586-20.947-5.093-29.358c-5.249-7.771-13.232-12.817-22.48-14.211
					c-16.089-2.437-34.98,1.75-57.705,12.766l-119.165,70.859c-5.869,3.494-13.145,3.645-19.165,0.4
					c-6.016-3.245-9.883-9.409-10.19-16.235l-3.311-73.74c-0.542-12.102-4.263-22.996-10.757-31.501
					c-8.716-11.406-15.298-10.618-17.437-10.347c-12.559,1.533-34.966,21.162-56.782,71.433c-0.19,0.439-0.4,0.869-0.62,1.294
					l-101.157,192.759c-3.013,5.737-8.687,9.6-15.132,10.293c-6.431,0.706-12.808-1.87-16.973-6.836
					c-142.627-170.051-270.835-206.343-283.198-209.512c-28.916-2.649-507.437-44.602-767.964,45.315
					c-233.73,80.667-337.974,423.694-357.954,497.722l241.04,133.713c5.464,3.03,9.136,8.501,9.873,14.702
					c0.205,1.716,20.688,174.7,44.731,434.358c23.931,258.452,88.169,590.039,88.818,593.359
					c2.026,10.417-4.678,20.535-15.063,22.732c-47.656,10.073-81.24,29.678-99.819,58.264
					c-22.505,34.626-19.727,77.124-13.433,106.677c3.13,14.717,15.703,24.995,30.571,24.995h431.309
					c15.962,0,30.859-6.323,41.953-17.803c11.104-11.499,16.914-26.638,16.362-42.627c-9.429-272.339-12.451-490.056-9.243-665.598
					c0.176-9.666,7.427-17.732,17.017-18.933C2106.901,2825.719,2107.711,2825.67,2108.517,2825.67z"/>
			</g>
			<g>
				<path style="fill:#371A45;" d="M2978.235,1675.606c30.891,14.868,54.784,45.486,60.374,79.136
					c2.095,10.231,1.821,20.758,1.284,31.008c-1.494-4.912-2.595-9.8-4.375-14.455c-7.939-22.05-24.123-41.216-45.122-51.172
					c-7.356-3.391-15.45-6.665-23.288-7.269C2942.732,1704.759,2953.379,1669.008,2978.235,1675.606L2978.235,1675.606z"/>
			</g>
			<g>
				<path style="fill:#371A45;" d="M3028.342,2009.38c-40.463-14.939-75.237-44.516-98.596-80.329
					c29.749,23.803,66.298,39.81,104.344,42.13c0.464-0.002,1.067,0.027,1.155-0.059L3028.342,2009.38L3028.342,2009.38z"/>
			</g>
			<g>
				<path style="fill:#371A45;" d="M2951.583,2141.815c-105.396,0.002-172.051-39.365-211.108-75.667
					c-50.562-46.99-66.768-98.638-67.432-100.815c-1.362-4.448-1.079-9.241,0.791-13.501l54.346-123.687
					c4.316-9.827,15.786-14.297,25.615-9.976c9.829,4.319,14.297,15.786,9.98,25.615l-51.235,116.599
					c12.632,31.985,79.434,167.354,296.006,138.643c10.679-1.411,20.41,6.077,21.821,16.716
					c1.411,10.642-6.074,20.413-16.714,21.824C2991.618,2140.484,2970.939,2141.815,2951.583,2141.815z"/>
			</g>
			<g>
				<path style="fill:#371A45;" d="M2654.367,2065.982c-2.554,0-5.151-0.508-7.651-1.58c-9.863-4.229-14.434-15.657-10.205-25.525
					l37.256-86.887c4.229-9.861,15.654-14.436,25.527-10.203c9.863,4.229,14.434,15.657,10.205,25.525l-37.256,86.887
					C2669.083,2061.568,2661.906,2065.982,2654.367,2065.982z"/>
			</g>
			<g>
				<g>
					<path style="fill:#FFFFFF;" d="M1388.035,927.967l-77.753,35.469c-45.542,20.775-73.662,67.376-70.813,117.352l13.173,231.031
						c3.241,56.836,45.544,103.786,101.736,112.91l102.364,16.622"/>
				</g>
				<g>
					<path style="fill:#FFFFFF;" d="M2661.757,855.34l81.281,26.401c47.609,15.464,80.843,58.566,83.693,108.542l13.173,231.031
						c3.241,56.836-33.451,108.29-88.243,123.743l-99.812,28.15"/>
				</g>
				<g style="opacity:0.25;">
					<path style="fill:#371A45;" d="M1456.735,1441.345l-102.387-16.598c-56.134-9.13-98.473-56.1-101.714-112.928l-7.478-131.141
						c3.24,56.828,45.579,103.799,101.714,112.928l92.123,14.959L1456.735,1441.345z"/>
				</g>
				<g style="opacity:0.25;">
					<path style="fill:#371A45;" d="M2832.396,1090.174l7.478,131.141c3.24,56.828-33.421,108.303-88.218,123.758l-99.835,28.129
						l2.593-134.003l89.765-25.267C2798.974,1198.478,2835.636,1147.002,2832.396,1090.174z"/>
				</g>
				<g>
					<circle style="fill:#FFFFFF;" cx="2033.182" cy="1100.349" r="700.329"/>
				</g>
				<g style="opacity:0.25;">
					<path style="fill:#371A45;" d="M2073.058,1799.536c-160.179,9.129-310.796-36.321-433.877-120.192
						c73.327,20.934,151.311,30.09,231.683,25.495c386.118-22.009,681.334-352.897,659.324-739.062
						c-12.929-225.984-131.613-420.858-305.281-539.176c278.891,79.29,490.058,328.033,507.474,633.873
						C2754.392,1446.639,2459.223,1777.526,2073.058,1799.536z"/>
				</g>
				<g>
					<path style="fill:#371A45;" d="M2733.684,1083.418c17.524,307.339-281.276,574.368-667.461,596.388
						c-352.087,20.076-655.221-170.428-719.171-437.221c-6.236-25.781-10.209-52.306-11.755-79.431
						c-17.524-307.339,281.281-574.291,667.466-596.311c290.175-16.546,547.071,109.945,664.309,304.207l0.004,0.077
						C2705.872,935.409,2729.332,1007.101,2733.684,1083.418z"/>
				</g>
				<g style="opacity:0.7;">
					<path style="fill:#111A28;" d="M2733.684,1083.418c17.524,307.339-281.276,574.368-667.461,596.388
						c-352.087,20.076-655.221-170.428-719.171-437.221c4.758-6.882,7.541-10.654,7.541-10.654
						c356.017,513.968,1326.98,231.829,1312.483-360.805C2705.872,935.409,2729.332,1007.101,2733.684,1083.418z"/>
				</g>
				<g>
					<path style="fill:#371A45;" d="M2032.252,1820.145c-176.802,0.007-345.225-64.045-478.223-182.695
						c-143.467-127.986-228.501-304.18-239.443-496.125c-10.947-191.943,53.511-376.663,181.494-520.127
						c127.988-143.464,304.185-228.504,496.128-239.448c192.012-10.918,376.665,53.516,520.127,181.499
						c143.467,127.988,228.501,304.182,239.443,496.128c10.947,191.946-53.511,376.663-181.494,520.127
						c-127.988,143.464-304.185,228.501-496.128,239.446C2060.153,1819.747,2046.159,1820.143,2032.252,1820.145z M2034.064,419.43
						c-13.169,0-26.387,0.376-39.639,1.133c-181.582,10.354-348.262,90.798-469.336,226.514
						c-121.069,135.715-182.046,310.457-171.694,492.036c10.356,181.577,90.796,348.254,226.514,469.329
						c135.713,121.072,310.469,182.063,492.031,171.694c181.582-10.352,348.262-90.796,469.336-226.511
						s182.046-310.457,171.694-492.036l0,0c-10.356-181.577-90.796-348.254-226.514-469.329
						C2360.646,480.023,2201.305,419.43,2034.064,419.43z"/>
				</g>
				<g>
					<path style="fill:#371A45;" d="M1333.327,1145.877c-8.95,0-16.45-6.992-16.968-16.04
						c-9.287-162.891,56.86-320.125,186.255-442.742c128.608-121.875,304.502-194.985,495.269-205.862
						c190.747-10.884,373.823,41.765,515.459,148.23c142.49,107.117,226.084,255.813,235.371,418.699
						c0.532,9.38-6.636,17.415-16.016,17.949c-9.233,0.591-17.412-6.631-17.949-16.011
						c-8.706-152.722-87.495-292.451-221.846-393.445c-135.22-101.648-310.381-151.897-493.086-141.462
						c-182.754,10.42-351.021,80.237-473.804,196.592c-122.002,115.613-184.399,263.391-175.688,416.113
						c0.532,9.38-6.636,17.415-16.016,17.949C1333.981,1145.868,1333.654,1145.877,1333.327,1145.877z"/>
				</g>
				<g>
					<path style="fill:#371A45;" d="M1456.769,1460.792c-1.035,0-2.085-0.083-3.14-0.254l-102.368-16.621
						c-65.698-10.669-114.233-64.534-118.022-130.991l-13.174-231.033c-3.335-58.416,28.911-111.855,82.148-136.143l77.754-35.469
						c9.746-4.451,21.294-0.154,25.752,9.619c4.453,9.766,0.146,21.296-9.619,25.752l-77.754,35.469
						c-38.54,17.581-61.885,56.267-59.473,98.557l13.174,231.035c2.744,48.11,37.881,87.107,85.444,94.829l102.368,16.621
						c10.596,1.721,17.793,11.707,16.069,22.302C1474.381,1454.007,1466.134,1460.792,1456.769,1460.792z"/>
				</g>
				<g>
					<path style="fill:#371A45;" d="M2651.842,1392.652c-8.486,0-16.279-5.598-18.696-14.167
						c-2.915-10.332,3.096-21.069,13.428-23.984l99.81-28.152c46.382-13.079,76.86-55.815,74.116-103.928l-13.174-231.03
						c-2.412-42.292-30-78.074-70.293-91.162l-81.279-26.401c-10.21-3.315-15.796-14.282-12.48-24.492
						c3.315-10.21,14.287-15.796,24.492-12.48l81.279,26.401c55.654,18.076,93.765,67.505,97.09,125.923l13.174,231.03
						c3.794,66.455-38.306,125.488-102.368,143.557l-99.81,28.152C2655.363,1392.416,2653.59,1392.652,2651.842,1392.652z"/>
				</g>
				<g style="opacity:0.5;">
					<path style="fill:#FFFFFF;" d="M2473.737,1384.509c69.243-293.49-46.933-518.492-322.758-684.527
						C2626.79,801.964,2733.976,1176.622,2473.737,1384.509z"/>
				</g>
				<g style="opacity:0.5;">
					<path style="fill:#FFFFFF;" d="M1587.832,1151.88c1.898,39.019,9.118,95.84,31.61,157.863
						c11.563,31.887-3.911,67.264-35.121,80.546l0,0c-27.905,11.876-60.397,2.609-77.664-22.322
						c-43.558-62.892-73.086-139.479-66.155-219.452c3.914-45.165,48.161-75.608,92.052-64.26h0
						C1563.773,1092.327,1586.265,1119.673,1587.832,1151.88z"/>
				</g>
				<g style="opacity:0.5;">
					<path style="fill:#FFFFFF;" d="M1639.763,840.597L1639.763,840.597c16.169,17.802,18.917,44.037,6.789,64.804l-31.922,54.656
						c-13.685,23.431-42.396,33.402-67.659,23.498l-4.08-1.6c-31.226-12.242-44.544-49.4-27.801-78.462
						c10.095-17.522,23.392-37.999,40.515-59.829C1576.654,816.826,1616.831,815.349,1639.763,840.597z"/>
				</g>
			</g>
			<g>
				<path style="fill:#A7A9B7;" d="M983.591,2517.5c-164.057-8.466-148.234-93.756-148.234-93.756
					c9.2,1.285,252.661,36.657,252.661,36.657"/>
			</g>
			<g>
				<path style="fill:#A7A9B7;" d="M1135.213,2550.302l328.425,27.514c12.399,1.039,24.599-3.609,33.164-12.634l307.737-324.25
					c6.918-7.289,10.775-16.955,10.775-27.004v-22.306c0-19.212-13.915-35.598-32.874-38.71l-608.572-99.892L1135.213,2550.302z"/>
			</g>
			<g>
				<path style="fill:#371A45;" d="M1467.14,2597.401c-1.699,0-3.408-0.071-5.122-0.215l-328.428-27.515
					c-10.654-0.894-18.589-10.22-17.759-20.876l38.657-497.283c0.425-5.427,3.101-10.427,7.383-13.787s9.771-4.763,15.146-3.889
					l608.569,99.893c28.486,4.678,49.165,29.023,49.165,57.891v22.307c0,15.093-5.723,29.436-16.118,40.386l-307.734,324.25
					C1499.396,2590.687,1483.673,2597.401,1467.14,2597.401z M1156.09,2532.545l309.17,25.901c6.597,0.557,12.92-1.873,17.441-6.643
					l307.739-324.253c3.506-3.694,5.435-8.533,5.435-13.623v-22.307c0-9.736-6.978-17.949-16.587-19.526l-587.681-96.465
					L1156.09,2532.545z"/>
			</g>
			<g>
				<path style="fill:#A7A9B7;" d="M1443.486,2508.705l-615.302-85.963c-41.84-5.831-79.646-28.671-103.603-63.513
					c-8.115-11.76-15.939-24.005-23.52-36.64c-103.312-171.732-158.515-414.753-136.064-548.533
					c4.714-27.893,31.829-46.213,59.528-40.382l686.056,143.985c34.211,7.192,61.472,33.19,70.219,67.06
					c3.936,15.21,7.775,30.371,11.565,45.484c41.305,163.86,75.37,321.743,97.772,471.317
					C1494.219,2488.878,1470.893,2512.544,1443.486,2508.705z"/>
			</g>
			<g style="opacity:0.6;">
				<path style="fill:#FFFFFF;" d="M610.384,1821.045c-23.811,141.508,39.459,405.375,154.482,577.691
					c-15.696-10.351-29.399-23.715-40.285-39.508c-118.279-172.072-183.687-441.577-159.584-585.173
					c4.714-27.893,31.829-46.213,59.528-40.382l686.056,143.985c29.594,6.22,53.988,26.484,65.651,53.794
					c-6.414-3.061-13.218-5.345-20.312-6.803l-686.007-143.985C642.165,1774.832,615.049,1793.152,610.384,1821.045z"/>
			</g>
			<g>
				<path style="fill:#371A45;" d="M1449.386,2528.543c-2.852,0-5.723-0.198-8.608-0.601l0,0l-615.273-85.947
					c-47.539-6.641-90.171-32.803-116.953-71.78c-114.746-166.956-189.253-441.433-162.705-599.365
					c3.145-18.694,13.516-34.888,29.214-45.596c15.781-10.767,34.775-14.534,53.472-10.608l686.035,143.984
					c41.782,8.767,74.37,39.895,85.044,81.238c51.44,199.355,87.334,369.048,109.731,518.777
					c2.871,19.185-3.306,38.088-16.943,51.865C1480.822,2522.201,1465.5,2528.543,1449.386,2528.543z M1446.154,2489.442
					c6.938,0.95,13.711-1.326,18.618-6.284c4.932-4.978,7.163-11.816,6.123-18.76c-22.197-148.384-57.827-316.78-108.931-514.814
					c-6.948-26.921-28.169-47.195-55.381-52.905l-686.04-143.984c-8.242-1.729-16.616-0.068-23.574,4.675
					c-6.875,4.688-11.411,11.765-12.783,19.927c-21.934,130.474,36.904,397.024,156.406,570.901
					c20.62,30.007,53.53,50.161,90.293,55.298L1446.154,2489.442z"/>
			</g>
			<g>
				<path style="fill:#371A45;" d="M1447.326,2528.478c-8.804,0-16.772-6.016-18.896-14.951l-115.757-487.356
					c-8.486-35.735-37.148-63.899-73.027-71.755l-680.601-148.999c-10.488-2.297-17.129-12.659-14.834-23.147
					c2.3-10.483,12.7-17.131,23.145-14.829l680.601,148.999c50.376,11.03,90.625,50.576,102.539,100.75l115.757,487.354
					c2.48,10.444-3.975,20.923-14.419,23.403C1450.324,2528.304,1448.81,2528.478,1447.326,2528.478z"/>
			</g>
			<g>
				<path style="fill:#371A45;" d="M983.605,2536.939c-0.337,0-0.674-0.01-1.016-0.027c-72.383-3.735-122.344-22.439-148.496-55.593
					c-22.969-29.114-18.438-57.932-17.847-61.121c1.958-10.564,12.168-17.505,22.656-15.566
					c10.454,1.938,17.388,11.907,15.62,22.349c-0.146,1.104-1.841,15.75,10.786,31.125c13.237,16.116,44.673,36.133,119.282,39.983
					c10.723,0.554,18.965,9.692,18.413,20.413C1002.467,2528.883,993.883,2536.939,983.605,2536.939z"/>
			</g>
			<g>
				<path style="fill:#371A45;" d="M1490.587,2471.742c-4.258,0-8.521-1.589-11.821-4.783c-6.753-6.528-6.934-17.297-0.405-24.05
					l291.851-301.821c6.528-6.748,17.3-6.929,24.048-0.403c6.753,6.528,6.934,17.297,0.405,24.05l-291.851,301.821
					C1499.479,2470.006,1495.036,2471.742,1490.587,2471.742z"/>
			</g>
			<g style="opacity:0.25;">
				<polyline style="fill:#371A45;" points="1490.589,2454.733 1782.44,2152.911 1805.147,2165.321 1815.314,2231.198 
					1496.802,2575.097 1480.823,2558.401 1469.944,2509.115 1490.589,2482.27 				"/>
			</g>
			<g>
				<path style="fill:#371A45;" d="M1475.241,2590.799c-9.297,0-17.515-6.692-19.136-16.167l-10.64-62.258
					c-1.807-10.581,5.303-20.625,15.884-22.434c10.581-1.797,20.62,5.303,22.437,15.886l10.64,62.258
					c1.807,10.581-5.303,20.625-15.884,22.434C1477.433,2590.707,1476.33,2590.799,1475.241,2590.799z"/>
			</g>
			<g>
				<path style="fill:#371A45;" d="M1504.713,2250.23c-0.762,0-1.533-0.059-2.305-0.183l-57.373-9.177
					c-5.913-0.945-10.645-5.413-11.934-11.262l-17.324-78.745c-1.045-4.744,0.342-9.695,3.701-13.206
					c3.354-3.511,8.232-5.12,13.022-4.292l123.564,21.384c4.976,0.862,9.15,4.236,11.035,8.918
					c1.89,4.683,1.216,10.007-1.772,14.077l-48.867,66.538C1513.693,2248.058,1509.308,2250.23,1504.713,2250.23z
					 M1459.445,2213.648l38.784,6.204l29.663-40.388l-78.975-13.667L1459.445,2213.648z"/>
			</g>
			<g>
				<path style="fill:#371A45;" d="M1490.578,2401.28c-3.14,0-6.299-1.011-8.965-3.091c-6.343-4.956-7.471-14.116-2.515-20.461
					l59.141-75.725l-81.768-8.826c-8.008-0.864-13.794-8.054-12.93-16.06c0.859-8.003,8.12-13.774,16.055-12.93l107.827,11.638
					c5.264,0.569,9.805,3.943,11.865,8.816s1.318,10.481-1.938,14.651l-75.273,96.379
					C1499.201,2399.354,1494.914,2401.28,1490.578,2401.28z"/>
			</g>
			<g style="opacity:0.25;">
				<path style="fill:#371A45;" d="M1443.486,2508.705l-615.302-85.963c-41.84-5.831-79.646-28.671-103.603-63.513
					c-8.115-11.76-15.939-24.005-23.52-36.64c601.89,111.233,630.512-300.897,630.512-300.897l60.792-31.489
					c41.305,163.86,75.37,321.743,97.772,471.317C1494.219,2488.878,1470.893,2512.544,1443.486,2508.705z"/>
			</g>
			<g>
				<path style="fill:#F9F9F9;" d="M1207.074,2587.962c166.942-47.354,32.801-174.94-49.809-195.593
					c-133.422-40.523-193.64,54.176-167.818,131.783c6.459,19.411,20.201,35.625,37.853,45.966
					C1079.018,2600.417,1139.693,2604.14,1207.074,2587.962z"/>
			</g>
			<g style="opacity:0.25;">
				<path style="fill:#371A45;" d="M1207.074,2587.962c-67.4,16.182-128.046,12.44-179.75-17.834
					c-17.688-10.351-31.441-26.581-37.855-45.97c-3.353-10.107-5.297-20.507-5.734-30.857
					c50.927,28.427,110.309,31.586,176.155,15.793c58.508-16.571,80.035-43.055,79.744-71.288
					C1294.496,2485.427,1321.417,2555.55,1207.074,2587.962z"/>
			</g>
			<g>
				<path style="fill:#371A45;" d="M1133.209,2616.761c-43.042,0-81.768-9.971-115.732-29.871
					c-22.139-12.969-38.647-33.069-46.475-56.599c-15.366-46.177-4.805-95.5,27.559-128.728
					c21.777-22.361,72.002-55.688,163.901-27.93c58.13,14.761,142.778,77.344,143.804,142.402
					c0.454,29.065-15.464,68.381-93.887,90.625c-0.254,0.073-0.508,0.139-0.767,0.203
					C1184.118,2613.463,1157.946,2616.761,1133.209,2616.761z M1207.077,2587.962h0.049H1207.077z M1096.999,2402.083
					c-29.175,0-53.408,8.967-70.586,26.606c-22.183,22.771-29.277,57-18.525,89.329c4.854,14.578,15.239,27.126,29.238,35.327
					c45.063,26.399,99.033,31.577,165.029,15.808c30.098-8.586,65.674-24.646,65.239-52.507
					c-0.625-39.666-65.225-93.015-114.844-105.42c-0.313-0.078-0.625-0.164-0.933-0.259
					C1132.052,2405.025,1113.712,2402.083,1096.999,2402.083z"/>
			</g>
			<g>
				<path style="fill:#371A45;" d="M1692.095,3342.979l53.162,33.428l-62.654,4.271c-11.262,0.768-21.016-7.74-21.785-19.004
					C1659.193,3345.414,1678.721,3333.983,1692.095,3342.979L1692.095,3342.979z"/>
			</g>
			<g>
				<path style="fill:#371A45;" d="M2269.304,3388.981c38.494-31.706,90.76-41.206,139.048-41.551
					c25.429,0.413,51.648,3.967,76.428,9.2c0-0.001,29.482,7.627,29.482,7.627c-17.873-1.927-42.62-3.845-60.249-3.41
					c-5.493,0.307-17.139,0.605-22.386,1c-4.571,0.512-17.337,1.994-22.097,2.55c-33.001,5.519-66.004,15.687-93.152,34.874
					c-6.783,4.768-13.702,10.238-18.804,16.393C2279.574,3433.846,2252.151,3408.097,2269.304,3388.981L2269.304,3388.981z"/>
			</g>
			<g>
				<path style="fill:#371A45;" d="M2385.216,3242.735c-45.503,0-91.196-4.431-134.326-10.227
					c-10.64-1.431-18.105-11.213-16.675-21.853c1.426-10.642,11.201-18.118,21.851-16.677
					c219.497,29.49,339.517-7.263,401.26-122.925c5.059-9.47,16.836-13.054,26.304-7.991c9.468,5.054,13.047,16.831,7.993,26.301
					C2626.623,3211.112,2506.681,3242.735,2385.216,3242.735z"/>
			</g>
			<g>
				<path style="fill:#371A45;" d="M1884.738,3240.873c-124.009,0-230.771-43.398-237.954-46.379
					c-9.912-4.119-14.614-15.493-10.493-25.408c4.116-9.91,15.474-14.617,25.396-10.498l0,0
					c2.666,1.101,268.628,108.901,434.805-22.092c8.433-6.658,20.654-5.198,27.295,3.23c6.646,8.43,5.2,20.652-3.228,27.3
					C2049.054,3223.39,1963.415,3240.873,1884.738,3240.873z"/>
			</g>
			<g>
				<path style="fill:#371A45;" d="M1793.518,2705.286c237.083,55.504,354.139,55.827,591.089-0.003
					c1.079-0.406,2.583,0.071,2.785,1.364c0.186,0.871-0.259,1.729-1.023,2.104l-34.727,17.068
					c-157.437,73.503-328.065,80.204-489.604,15.338c-21.225-8.566-49.721-21.945-70.283-32.407
					c-0.945-0.464-1.333-1.606-0.869-2.551C1791.444,2705.177,1792.488,2704.957,1793.518,2705.286L1793.518,2705.286z"/>
			</g>
			<g>
				<path style="fill:#371A45;" d="M2108.385,2869.811c-9.673,0-18.047-7.212-19.268-17.056l-8.413-68.03
					c-1.318-10.654,6.25-20.359,16.904-21.677s20.356,6.252,21.68,16.907l8.413,68.03c1.318,10.654-6.25,20.359-16.904,21.677
					C2109.987,2869.762,2109.181,2869.811,2108.385,2869.811z"/>
			</g>
			<g>
				<path style="fill:#371A45;" d="M2614.07,2235.521c-17.875-152.841-50.109-305.715-105.475-449.771
					c16.821,34.954,32.77,70.485,46.735,106.826c42.258,109.54,74.304,222.19,97.239,337.54
					C2656.696,2256.728,2617.522,2262.406,2614.07,2235.521L2614.07,2235.521z"/>
			</g>
			<g>
				<path style="fill:#371A45;" d="M2064.958,2490.804l-7.412-189.302c-0.781-19.973,7.461-38.909,22.612-51.951l56.104-48.262
					c5.938-5.11,9.272-12.532,9.141-20.361l-2.881-173.735l38.867-0.645l2.881,173.73c0.327,19.409-7.93,37.813-22.656,50.481
					l-56.099,48.262c-6.113,5.259-9.438,12.9-9.121,20.959l7.412,189.302L2064.958,2490.804z"/>
			</g>
			<g>
				<ellipse style="fill:#22A7F0;" cx="1922.627" cy="2210.141" rx="77.751" ry="81.396"/>
			</g>
			<g>
				<path style="fill:#371A45;" d="M1922.628,2310.975c-53.594,0-97.192-45.234-97.192-100.835
					c0-55.598,43.599-100.833,97.192-100.833c53.589,0,97.188,45.234,97.188,100.833
					C2019.816,2265.741,1976.217,2310.975,1922.628,2310.975z M1922.628,2148.185c-32.153,0-58.315,27.793-58.315,61.956
					c0,34.165,26.162,61.958,58.315,61.958s58.311-27.793,58.311-61.958C1980.939,2175.978,1954.782,2148.185,1922.628,2148.185z"/>
			</g>
			<g>
				<path style="fill:#371A45;" d="M2403.102,2199.266c-10.073,0-18.594-7.771-19.365-17.981
					c-0.806-10.706,7.222-20.034,17.925-20.84l210.762-15.852c10.752-0.825,20.034,7.222,20.845,17.925
					c0.806,10.706-7.222,20.037-17.925,20.84l-210.762,15.852C2404.083,2199.249,2403.59,2199.266,2403.102,2199.266z"/>
			</g>
			<g>
				<path style="fill:#371A45;" d="M2633.341,2351.065h-223.125c-10.737,0-19.438-8.704-19.438-19.438s8.701-19.438,19.438-19.438
					h223.125c10.737,0,19.438,8.704,19.438,19.438c0,10.703-8.652,19.387-19.346,19.438
					C2633.405,2351.065,2633.371,2351.065,2633.341,2351.065z"/>
			</g>
			<g>
				<path style="fill:#371A45;" d="M1774.821,2427.196h-122.3c-10.737,0-19.438-8.704-19.438-19.438s8.701-19.438,19.438-19.438
					h122.3c10.737,0,19.438,8.704,19.438,19.438S1785.558,2427.196,1774.821,2427.196z"/>
			</g>
			<g>
				<path style="fill:#371A45;" d="M1628.63,1834.749c-20.158,50.592-31.535,104.221-38.206,158.03
					c-5.2,41.246-6.409,83.674-5.131,125.15c0,0-38.86-1.136-38.86-1.136c2.721-24.738,5.674-49.401,10.457-73.793
					C1570.619,1970.848,1592.84,1899.016,1628.63,1834.749L1628.63,1834.749z"/>
			</g>
			<g style="opacity:0.25;">
				<path style="fill:#371A45;" d="M2408.133,2399.513c-1.507,27.261-20.896,50.052-47.574,55.932
					c-171.198,37.612-345.701,46.165-523.119,28.573c-26.678-2.624-48.497-22.791-53.114-49.177
					c-3.499-19.778-6.657-39.75-9.476-59.869c314.891,72.406,530.456-13.509,597.225-336.71
					c7.289,7.969,12.489,17.932,14.676,29.108C2398.56,2127.579,2416.346,2248.19,2408.133,2399.513z"/>
			</g>
			<g style="opacity:0.25;">
				<path style="fill:#371A45;" d="M2730.509,3538.371c-8.601,10.107-19.244,18.952-29.788,26.338
					c-24.054,16.813-52.822,25.512-82.125,25.512h-329.421c-21.916,0-41.014-15.259-45.484-36.738
					c-7.386-35.377-10.982-89.51,20.264-130.962c0.923,2.138,1.749,4.422,2.479,6.9c21.867,74.885,208.956,92.913,311.004,27.165
					c102.048-65.748,7.289-400.904-16.425-575.844c-23.763-174.94-107.491-201.667-107.491-201.667
					c45.846-70.792,73.679-156.948,89.493-247.092c4.196-23.917-13.529-46.128-37.765-47.631l-40.795-2.529
					c0,0,21.868,37.272-29.156,101.66c-51.024,64.387-352.309,66.817-462.862,64.387s-127.56-57.827-127.56-57.827
					s86.255,8.018,102.048,2.721c15.793-5.248,343.805-10.496,403.333-28.33c59.528-17.786,59.966-76.925,59.966-76.925
					l5.637-121.972h95.846c27.002,0,49.076-21.751,49.256-48.753c1.401-211.084-37.944-394.368-39.118-399.967
					c40.091,99.813,76.488,232.329,111.476,377.14l23.86,51.705c-7.824-4.034-15.745-8.31-23.86-12.83
					c0,0,21.042,281.848,1.604,443.813c-19.438,161.965,103.7,745.098,103.7,745.098S2758.061,3506.007,2730.509,3538.371z"/>
			</g>
			<g style="opacity:0.25;">
				<path style="fill:#371A45;" d="M2117.733,3509.7c1.506,43.978-33.676,80.521-77.751,80.521h-431.275
					c-24.054,0-44.61-16.911-49.615-40.382c-8.601-40.285-11.031-102.291,37.126-145.783c3.013,7.776,5.345,16.231,6.9,25.366
					c21.867,128.338,157.932,93.107,245.402,92.913c87.47-0.195,116.627-175.086,99.619-391.331
					c-17.008-216.245-68.518-386.325-68.518-386.325l65.262,5.685l155.113,25.075c0,0,3.11,37.272,8.115,95.974
					C2105.342,3059.522,2109.667,3276.836,2117.733,3509.7z"/>
			</g>
			<g style="opacity:0.25;">
				<path style="fill:#371A45;" d="M2323.531,3376.406l-40.042,14.773c-0.243-35.572-5.151-149.185-55.106-230.192
					c-51.51-83.533-103.02-256.772-116.48-303.812l-0.195-0.631v-0.049l-7.483-87.519h78.383l100.833-24.297
					c0,0-75.321,75.321-19.438,269.699C2319.886,3208.756,2323.531,3376.406,2323.531,3376.406z"/>
			</g>
			<g style="opacity:0.25;">
				<path style="fill:#371A45;" d="M3175.147,1723.031c0,0,65.602,92.718-14.578,187.477
					c-80.181,94.759-128.775,82.61-128.775,82.61c-22.256,242.632-107.734,383.993-355.565,264.937c0-0.049-0.049-0.049-0.097-0.097
					c-25.658-20.361-42.812-34.453-42.812-34.453l-19.438-97.092l-21.187-91.163c1.847,3.888,72.697,152.246,173.433,93.496
					c102.048-59.528,140.924-257.162,140.924-257.162c107.248,74.35,173.336,43.395,183.055-131.593
					c0,0,87.47-57.925,79.355-119.445c-0.34-2.77-0.438-5.442-0.243-8.066c27.602,7.921,43.638,36.932,36.737,65.748
					C3201.874,1695.478,3191.766,1710.493,3175.147,1723.031z"/>
			</g>
			<g style="opacity:0.25;">
				<path style="fill:#371A45;" d="M1404.308,2038.263c0,0,93.987,48.753,206.332-161.003c0,0-41.537,143.363-36.678,206.536
					c4.859,63.173-54.264,33.566-54.264,33.566l-89.683-16.558"/>
			</g>
			<g>
				<g>
					<g>
						<g>
							<g>
								<path style="fill:#FFFFFF;" d="M1071.458,2093.398c2.317,5.591,4.289,11.262,5.919,16.982
									c-21.419,19.293-63.777,46.358-114.401,71.923c-50.62,25.562-96.872,43.244-124.101,48.518
									c-2.854-5.101-5.452-10.457-7.769-16.048c-0.109-0.263-0.216-0.521-0.32-0.786c-1.012-2.47-1.951-4.953-2.822-7.45
									c-2.049-5.845-3.731-11.756-5.06-17.703c-0.055-0.241-0.109-0.481-0.159-0.724c-1.93-8.843-3.081-17.754-3.485-26.637
									c-0.771-16.899,1.153-33.676,5.519-49.602c10.604-38.667,35.624-72.314,71.525-90.444
									c35.608-17.981,74.682-17.044,107.94-0.995c13.655,6.582,26.329,15.719,37.382,27.133
									c5.913,6.101,11.359,12.863,16.244,20.232c0.398,0.591,0.786,1.187,1.172,1.791c3.207,4.998,6.159,10.268,8.825,15.801
									c0.991,2.051,1.942,4.14,2.85,6.264C1070.969,2092.23,1071.215,2092.81,1071.458,2093.398z"/>
							</g>
							<g>
								<path style="fill:#FFFFFF;" d="M838.873,2231.961c-0.405,0-0.791-0.22-0.996-0.583c-2.876-5.151-5.513-10.591-7.827-16.167
									l-0.327-0.813c-0.991-2.407-1.948-4.934-2.832-7.488c-2.031-5.789-3.75-11.787-5.098-17.827
									c-0.054-0.232-0.112-0.488-0.166-0.747c-1.914-8.779-3.096-17.808-3.506-26.812c-0.771-16.89,1.099-33.696,5.562-49.956
									c11.069-40.383,37.354-73.608,72.109-91.16c34.473-17.415,74.189-17.781,108.945-1.003
									c13.945,6.721,26.631,15.928,37.71,27.366c5.986,6.177,11.494,13.04,16.377,20.396c0.396,0.593,0.791,1.196,1.182,1.809
									c3.262,5.088,6.25,10.444,8.887,15.918c1.001,2.065,1.958,4.17,2.876,6.309l0.742,1.76
									c2.31,5.569,4.316,11.323,5.962,17.104c0.122,0.417-0.01,0.869-0.332,1.16c-22.461,20.234-65.322,47.185-114.653,72.095
									c-49.336,24.912-95.84,43.088-124.399,48.618C839.02,2231.954,838.947,2231.961,838.873,2231.961z M951.281,2009.364
									c-18.608,0-37.202,4.363-54.463,13.081c-34.18,17.258-60.034,49.963-70.938,89.727c-4.399,16.03-6.24,32.6-5.483,49.25
									c0.405,8.875,1.572,17.773,3.462,26.448l0.156,0.693c1.333,5.977,3.023,11.89,5.024,17.595
									c0.879,2.517,1.816,5.002,2.803,7.397l0.234,0.586c2.251,5.422,4.712,10.542,7.392,15.4
									c28.037-5.605,75.029-24.036,122.993-48.257c48.037-24.255,91.465-51.509,113.623-71.277
									c-1.587-5.469-3.496-10.906-5.684-16.172l-0.728-1.733c-0.903-2.112-1.851-4.182-2.832-6.218
									c-2.598-5.393-5.547-10.669-8.76-15.681c-0.381-0.601-0.767-1.189-1.157-1.772c-4.805-7.244-10.225-13.997-16.118-20.073
									c-10.889-11.245-23.359-20.295-37.056-26.899C987.033,2013.392,969.152,2009.364,951.281,2009.364z"/>
							</g>
						</g>
						<g>
							<g>
								<path style="fill:#FFFFFF;" d="M1082.96,2166.688c-0.472,5.951-1.271,11.85-2.398,17.664
									c-1.569,8.171-3.779,16.172-6.583,23.913c-12.16,33.577-35.581,62.245-67.722,78.475
									c-32.211,16.266-67.261,17.052-98.274,5.177c-6.811-2.61-13.428-5.83-19.772-9.631c-4.979-2.974-9.785-6.31-14.397-9.981
									c32.379-9.153,69.784-23.845,108.48-43.386C1020.986,2209.379,1055.515,2187.745,1082.96,2166.688z"/>
							</g>
							<g>
								<path style="fill:#FFFFFF;" d="M951.325,2301.158c-14.727,0-29.487-2.717-43.745-8.176
									c-6.88-2.637-13.589-5.906-19.956-9.717c-4.985-2.981-9.873-6.37-14.517-10.068c-0.337-0.266-0.493-0.696-0.41-1.116
									s0.396-0.757,0.806-0.872c33.472-9.465,70.913-24.441,108.281-43.311c37.363-18.867,72.109-40.347,100.483-62.114
									c0.361-0.276,0.85-0.313,1.235-0.098c0.4,0.215,0.63,0.642,0.596,1.091c-0.479,6.013-1.294,12-2.417,17.791
									c-1.572,8.176-3.804,16.279-6.631,24.084c-12.754,35.22-37.007,63.311-68.281,79.104
									C989.122,2296.671,970.25,2301.158,951.325,2301.158z M876.281,2272.787c4.033,3.103,8.237,5.964,12.515,8.521
									c6.25,3.745,12.847,6.956,19.6,9.546c31.977,12.244,66.553,10.425,97.349-5.132c30.752-15.527,54.605-43.174,67.168-77.844
									c2.783-7.693,4.98-15.681,6.533-23.74c0.947-4.888,1.67-9.915,2.153-14.978c-28.096,21.316-62.197,42.297-98.789,60.776
									C946.115,2248.465,909.337,2263.255,876.281,2272.787z"/>
							</g>
						</g>
						<g>
							<g>
								<path style="fill:#FFFFFF;" d="M1077.377,2110.379c-21.415,19.291-63.776,46.362-114.398,71.924
									c-50.621,25.562-96.878,43.244-124.106,48.521c-2.848-5.108-5.446-10.462-7.77-16.05c-0.109-0.265-0.211-0.52-0.32-0.784
									c-1.008-2.475-1.95-4.953-2.817-7.45c-2.048-5.842-3.73-11.755-5.064-17.705c-0.054-0.241-0.108-0.482-0.153-0.722
									c-1.929-8.846-3.082-17.757-3.49-26.638c-0.766-16.897,1.158-33.675,5.521-49.607c8.58-31.273,26.575-59.252,52.146-78.401
									c-6.655,11.425-11.823,23.815-15.371,36.76c-4.372,15.931-6.295,32.7-5.521,49.607c0.4,8.88,1.553,17.792,3.483,26.629
									c0.053,0.25,0.107,0.491,0.161,0.732c0.071,0.318,0.17,0.712,0.294,1.173c6.739,25.066,31.186,35.557,54.775,33.195
									c44.964-4.502,142.322-62.594,163.032-75.997C1079.213,2109.414,1076.258,2106.47,1077.377,2110.379z"/>
							</g>
							<g>
								<path style="fill:#FFFFFF;" d="M838.873,2231.964c-0.41,0-0.791-0.22-0.996-0.586c-2.9-5.2-5.532-10.64-7.827-16.167
									l-0.273-0.667c-1.108-2.732-2.036-5.188-2.886-7.632c-2.036-5.808-3.75-11.807-5.103-17.83
									c-0.063-0.281-0.117-0.522-0.161-0.767c-1.909-8.755-3.091-17.781-3.506-26.79c-0.767-16.887,1.104-33.696,5.562-49.961
									c8.828-32.18,27.495-60.242,52.559-79.014c0.435-0.325,1.035-0.298,1.44,0.061c0.405,0.361,0.503,0.957,0.229,1.426
									c-6.587,11.304-11.719,23.579-15.259,36.487c-4.399,16.035-6.24,32.607-5.483,49.255c0.4,8.877,1.567,17.771,3.462,26.436
									c0.049,0.256,0.103,0.483,0.156,0.708c0.068,0.33,0.161,0.701,0.283,1.138c6.826,25.378,31.826,34.553,53.564,32.363
									c44.092-4.414,140.923-61.841,162.524-75.818c0.293-0.186,0.654-0.229,0.977-0.125c0.332,0.107,0.591,0.359,0.713,0.684
									c0.654,1.76,0.781,3.008-0.601,3.782c0,0.076,0.02,0.408,0.22,1.118c0.122,0.417-0.01,0.867-0.332,1.16
									c-22.456,20.229-65.313,47.18-114.644,72.095c-49.336,24.91-95.84,43.086-124.404,48.621
									C839.02,2231.957,838.947,2231.964,838.873,2231.964z M873.175,2037.85c-22.432,18.374-39.131,44.553-47.295,74.319
									c-4.395,16.035-6.235,32.605-5.483,49.253c0.41,8.882,1.577,17.781,3.467,26.448l0.142,0.681
									c1.338,5.969,3.032,11.885,5.034,17.612c0.84,2.407,1.753,4.827,2.798,7.397l0.317,0.769
									c2.158,5.198,4.614,10.31,7.314,15.215c28.042-5.613,75.039-24.043,122.998-48.259
									c48.052-24.268,91.494-51.528,113.633-71.296c-0.181-0.864-0.166-1.521,0.059-2.031
									c-26.465,16.821-117.637,70.366-161.299,74.739c-22.7,2.249-48.823-7.373-55.986-34.036
									c-0.132-0.479-0.234-0.894-0.308-1.228c-0.059-0.229-0.112-0.486-0.166-0.752c-1.919-8.767-3.101-17.791-3.506-26.797
									c-0.771-16.887,1.099-33.696,5.562-49.958C863.537,2058.69,867.809,2047.926,873.175,2037.85z"/>
							</g>
						</g>
						<g>
							
								<path style="fill:#FFFFFF;stroke:#FFFFFF;stroke-width:10.496;stroke-linecap:round;stroke-linejoin:round;stroke-miterlimit:10;" d="
								M852.719,2108.15"/>
						</g>
						<g>
							<g>
								<path style="fill:#FFFFFF;" d="M982.294,2228.918c38.691-19.539,73.22-41.173,100.665-62.23
									c-0.472,5.951-1.271,11.85-2.398,17.664c-21.118,17.089-54.882,38.224-94.217,58.088
									c-37.677,19.027-72.813,33.021-98.133,39.845c-4.979-2.974-9.785-6.31-14.397-9.981
									C906.193,2263.151,943.599,2248.459,982.294,2228.918z"/>
							</g>
							<g>
								<path style="fill:#FFFFFF;" d="M888.209,2283.426c-0.205,0-0.405-0.056-0.586-0.161c-4.985-2.981-9.873-6.37-14.517-10.068
									c-0.337-0.266-0.493-0.696-0.41-1.116s0.396-0.757,0.806-0.872c33.472-9.465,70.913-24.441,108.281-43.311l0.513,1.018
									l-0.513-1.018c37.363-18.867,72.109-40.347,100.483-62.114c0.361-0.276,0.85-0.313,1.235-0.098
									c0.4,0.215,0.63,0.642,0.596,1.091c-0.479,6.013-1.294,12-2.417,17.791c-0.049,0.264-0.19,0.5-0.4,0.669
									c-22.012,17.815-56.431,39.033-94.424,58.22c-36.226,18.293-72.075,32.849-98.35,39.929
									C888.41,2283.414,888.307,2283.426,888.209,2283.426z M876.281,2272.787c3.906,3.003,7.964,5.779,12.1,8.271
									c26.089-7.087,61.567-21.516,97.451-39.636c37.671-19.021,71.787-40.032,93.691-57.695
									c0.908-4.756,1.606-9.644,2.075-14.568c-28.096,21.316-62.197,42.297-98.789,60.776
									C946.115,2248.465,909.337,2263.255,876.281,2272.787z"/>
							</g>
						</g>
						<g>
							<g>
								<path style="fill:#FFFFFF;" d="M1070.718,2091.652c0.251,0.578,0.497,1.158,0.741,1.746
									c2.317,5.591,4.289,11.262,5.919,16.982c-21.419,19.293-63.777,46.358-114.401,71.923
									c-50.62,25.562-96.872,43.244-124.101,48.518c-2.854-5.101-5.452-10.457-7.769-16.048c-0.109-0.263-0.216-0.521-0.32-0.786
									c25.826-3.275,72.911-20.391,124.516-46.451C1008.945,2140.447,1052.776,2111.115,1070.718,2091.652z"/>
							</g>
							<g>
								<path style="fill:#FFFFFF;" d="M838.873,2231.961c-0.405,0-0.791-0.22-0.996-0.583c-2.876-5.151-5.513-10.591-7.827-16.167
									l-0.327-0.813c-0.127-0.327-0.093-0.693,0.088-0.994c0.176-0.303,0.483-0.503,0.835-0.547
									c26.67-3.381,74.243-21.138,124.146-46.34c51.553-26.03,96.729-55.72,115.088-75.637c0.264-0.283,0.654-0.425,1.03-0.352
									c0.381,0.063,0.703,0.317,0.854,0.671l0.747,1.763c2.31,5.569,4.316,11.323,5.962,17.104c0.122,0.417-0.01,0.869-0.332,1.16
									c-22.461,20.234-65.322,47.185-114.653,72.095c-49.336,24.915-95.84,43.088-124.399,48.618
									C839.02,2231.954,838.947,2231.961,838.873,2231.961z M832.404,2214.92c2.158,5.134,4.512,9.998,7.065,14.622
									c28.037-5.605,75.029-24.036,122.993-48.257c48.037-24.255,91.465-51.509,113.623-71.277
									c-1.587-5.469-3.496-10.906-5.684-16.172l-0.054-0.129c-19.243,20.076-63.843,49.25-114.531,74.846
									C906.603,2193.407,859.567,2211.063,832.404,2214.92z"/>
							</g>
						</g>
						<g>
							<g>
								<path style="fill:#FFFFFF;" d="M819.05,2166.384l0.422-9.822c18.013,0.945,65.06-15.8,114.406-40.72
									c58.871-29.73,96.858-58.15,103.956-70.857l7.583,5.161c-9.392,16.815-52.727,46.81-107.833,74.638
									C886.277,2150.694,838.642,2167.413,819.05,2166.384z"/>
								<path style="fill:#FFFFFF;" d="M820.807,2167.567c-0.63,0-1.235-0.015-1.816-0.046c-0.625-0.032-1.108-0.562-1.079-1.187
									l0.425-9.822c0.01-0.305,0.146-0.591,0.371-0.796s0.542-0.33,0.825-0.293c0.479,0.024,0.977,0.037,1.494,0.037
									c18.848,0,64.468-16.46,112.339-40.637c58.667-29.626,96.465-57.839,103.472-70.396c0.156-0.278,0.425-0.479,0.732-0.552
									c0.313-0.081,0.64-0.017,0.903,0.166l7.583,5.161c0.488,0.332,0.645,0.981,0.356,1.499
									c-9.492,16.997-53.018,47.178-108.315,75.1C888.141,2151.029,841.579,2167.567,820.807,2167.567z M820.236,2165.284
									c0.21,0.002,0.42,0.005,0.635,0.005c20.4,0,66.533-16.443,116.201-41.523c53.945-27.241,96.523-56.484,106.821-73.279
									l-5.708-3.884c-8.589,13.325-46.294,41.221-103.794,70.256c-48.159,24.324-94.219,40.879-113.433,40.879
									c-0.137,0-0.264,0-0.396-0.002L820.236,2165.284z"/>
							</g>
						</g>
						<g>
							<g>
								<path style="fill:#FFFFFF;" d="M825.454,2116.731l-1.347-9.721c20.243-3.417,55.315-16.9,91.529-35.189
									c37.946-19.162,70.757-40.254,85.628-55.043l5.963,7.307c-15.497,15.412-49.172,37.13-87.884,56.679
									C882.43,2099.404,846.454,2113.186,825.454,2116.731z"/>
								<path style="fill:#FFFFFF;" d="M825.456,2117.872c-0.239,0-0.479-0.076-0.674-0.222c-0.249-0.181-0.415-0.457-0.454-0.762
									l-1.348-9.722c-0.088-0.61,0.332-1.177,0.938-1.279c20.142-3.403,55.088-16.846,91.206-35.083
									c37.852-19.114,70.547-40.127,85.332-54.834c0.229-0.225,0.557-0.378,0.864-0.33c0.322,0.017,0.62,0.168,0.825,0.417
									l5.967,7.307c0.371,0.454,0.337,1.116-0.078,1.528c-15.576,15.488-49.365,37.285-88.179,56.887
									c-37.007,18.689-73.105,32.512-94.209,36.074C825.583,2117.867,825.519,2117.872,825.456,2117.872z M825.387,2107.943
									l1.035,7.463c21.045-3.828,56.26-17.407,92.407-35.662c38.013-19.194,71.128-40.461,86.86-55.745l-4.521-5.535
									c-15.337,14.814-47.71,35.532-85.019,54.375C880.485,2090.851,845.89,2104.22,825.387,2107.943z"/>
							</g>
						</g>
						<g>
							<g>
								<path style="fill:#FFFFFF;" d="M822.743,2193.027l0.006-9.834c20.669,0.011,69.281-17.516,120.966-43.616
									c54.214-27.378,99.673-58.081,110.547-74.664l7.217,5.766c-11.872,18.102-57.708,49.385-114.057,77.841
									C893.856,2175.57,844.916,2193.04,822.743,2193.027z"/>
								<path style="fill:#FFFFFF;" d="M822.765,2194.168c-0.298-0.017-0.61-0.115-0.83-0.334c-0.215-0.215-0.332-0.505-0.332-0.806
									l0.01-9.836c0-0.63,0.508-1.14,1.138-1.14l0,0c0.005,0,0.015,0,0.02,0c20.518,0,68.906-17.473,120.435-43.494
									c54.053-27.3,99.331-57.842,110.107-74.27c0.176-0.269,0.454-0.449,0.771-0.5s0.64,0.034,0.894,0.234l7.217,5.767
									c0.459,0.369,0.562,1.025,0.239,1.516c-11.978,18.259-57.988,49.697-114.497,78.232
									C894.24,2176.651,845.114,2194.168,822.765,2194.168z M823.888,2184.315l-0.005,7.559
									c22.515-0.564,70.508-17.852,123.027-44.373c55.293-27.922,100.4-58.513,113.037-76.589l-5.439-4.343
									c-12.109,16.943-56.997,47.117-110.278,74.026C893.322,2166.3,845.319,2183.714,823.888,2184.315z"/>
							</g>
						</g>
						<g>
							<g>
								<path style="fill:#FFFFFF;" d="M908.153,2294.368l-0.169-2.445l-1.046-2.177l0.41-0.24l0.467-0.042
									c17.868-1.505,51.897-13.832,86.693-31.403c34.988-17.669,64.843-37.422,77.914-51.553l3.116,3.513
									c-13.414,14.501-43.753,34.622-79.177,52.511C960.585,2280.6,926.785,2292.798,908.153,2294.368z"/>
								<path style="fill:#FFFFFF;" d="M908.151,2295.509c-0.273,0-0.537-0.098-0.742-0.276c-0.234-0.198-0.376-0.483-0.396-0.786
									l-0.151-2.224l-0.952-1.98c-0.259-0.537-0.064-1.182,0.449-1.479l0.41-0.239c0.147-0.083,0.303-0.134,0.469-0.151
									l0.469-0.044c17.744-1.494,51.611-13.772,86.289-31.284c34.878-17.617,64.609-37.278,77.593-51.311
									c0.215-0.234,0.518-0.366,0.835-0.366c0.005,0,0.01,0,0.01,0c0.322,0.005,0.63,0.144,0.845,0.383l3.115,3.513
									c0.386,0.439,0.381,1.101-0.02,1.531c-13.491,14.59-43.955,34.805-79.502,52.756
									c-35.898,18.127-69.858,30.374-88.623,31.953C908.214,2295.506,908.185,2295.509,908.151,2295.509z M908.581,2290.538
									l0.43,0.891c0.064,0.132,0.103,0.273,0.112,0.417l0.088,1.277c18.716-1.948,51.709-13.97,86.636-31.609
									c34.707-17.529,64.487-37.173,78.149-51.516l-1.597-1.802c-13.569,14.146-43.018,33.528-77.378,50.884
									C960.539,2276.495,926.754,2288.778,908.581,2290.538z"/>
							</g>
						</g>
						<g>
							<path style="fill:#FFFFFF;" d="M1082.96,2166.688c-4.01,50.586-31.877,97.416-76.703,120.052
								c-44.826,22.637-95.145,15.291-132.443-14.436c32.379-9.153,69.784-23.845,108.48-43.386
								C1020.986,2209.379,1055.515,2187.745,1082.96,2166.688z"/>
							<path style="fill:#FFFFFF;" d="M951.339,2305.177c-28.55,0-56.924-9.744-80.796-28.767c-1.538-1.226-2.261-3.21-1.875-5.139
								c0.391-1.929,1.826-3.479,3.721-4.014c33.218-9.395,70.405-24.272,107.544-43.025c37.139-18.755,71.66-40.093,99.834-61.707
								c1.646-1.267,3.882-1.438,5.698-0.449c1.821,0.991,2.891,2.959,2.725,5.027c-4.282,54.063-34.771,101.702-79.57,124.321
								C990.368,2300.643,970.812,2305.177,951.339,2305.177z M885.465,2274.334c35.674,23.911,80.171,27.041,118.423,7.72
								c38.237-19.307,65.249-58.425,72.427-103.848c-26.709,19.463-58.149,38.477-91.655,55.396
								C950.69,2250.758,916.627,2264.732,885.465,2274.334z"/>
						</g>
						<g>
							<g>
								<path style="fill:#FFFFFF;" d="M1147.43,2077.761c8.054,19.434-18.114,53.362-64.47,88.927
									c-27.445,21.057-61.974,42.692-100.665,62.23c-38.696,19.541-76.102,34.233-108.48,43.386
									c-54.687,15.461-95.048,15.129-103.102-4.305c-7.314-17.649,13.589-47.24,52.192-79.165
									c1.329,5.947,3.01,11.858,5.06,17.703c-10.669,9.716-15.911,17.409-14.062,21.87c1.883,4.544,10.882,5.139,24.974,2.414
									c27.229-5.274,73.481-22.956,124.101-48.518c50.624-25.565,92.982-52.631,114.401-71.923
									c11.078-9.985,16.554-17.89,14.671-22.434c-1.847-4.456-10.549-5.114-24.18-2.558c-2.666-5.533-5.618-10.803-8.825-15.801
									C1106.166,2058.221,1140.115,2060.112,1147.43,2077.761z"/>
							</g>
							<g>
								<path style="fill:#FFFFFF;" d="M808.703,2284.378c-20.947,0-34.653-5.347-39.043-15.942
									c-7.266-17.534,11.88-46.868,52.519-80.481c0.303-0.251,0.703-0.332,1.099-0.2c0.371,0.129,0.654,0.444,0.742,0.83
									c1.328,5.955,3.018,11.868,5.019,17.573c0.151,0.432,0.029,0.913-0.308,1.221c-14.092,12.837-14.683,18.411-13.774,20.591
									c0.903,2.185,5.181,5.308,23.701,1.733c27.935-5.41,75.376-23.962,123.804-48.418
									c48.423-24.453,92.163-51.946,114.155-71.753c14.658-13.218,15.298-18.923,14.375-21.147
									c-0.884-2.139-5.039-5.225-22.915-1.875c-0.498,0.085-1.016-0.164-1.235-0.625c-2.598-5.393-5.547-10.669-8.76-15.681
									c-0.195-0.31-0.234-0.698-0.098-1.04c0.142-0.342,0.435-0.596,0.791-0.684c49.702-11.992,82.397-8.767,89.707,8.845l0,0
									c7.979,19.255-16.255,53-64.829,90.266c-28.481,21.855-63.354,43.413-100.845,62.344
									c-37.495,18.933-75.073,33.965-108.682,43.467C848.18,2280.736,825.978,2284.376,808.703,2284.378z M822.208,2190.895
									c-38.843,32.429-57.217,60.322-50.44,76.667c7.52,18.171,45.566,19.519,101.738,3.647
									c33.467-9.465,70.908-24.441,108.276-43.311c37.363-18.867,72.109-40.347,100.483-62.114
									c47.705-36.602,71.67-69.343,64.106-87.585l0,0c-6.748-16.296-37.881-19.143-85.513-7.874
									c2.778,4.438,5.347,9.065,7.651,13.787c14.312-2.583,22.588-1.44,24.59,3.398c2.046,4.939-2.983,12.917-14.961,23.716
									c-22.461,20.234-65.322,47.185-114.653,72.095c-49.336,24.915-95.84,43.088-124.399,48.618
									c-15.327,2.969-24.15,1.924-26.24-3.096c-1.977-4.778,2.661-12.393,13.794-22.642
									C824.918,2201.214,823.429,2196.075,822.208,2190.895z"/>
							</g>
						</g>
						<g>
							<g>
								<path style="fill:#FFFFFF;" d="M827.151,2204.171c0.268,0.791,0.536,1.581,0.817,2.374
									c-10.674,9.712-15.92,17.397-14.069,21.861c1.889,4.554,10.894,5.146,24.978,2.415c18.058-3.495,44.502-12.457,75.036-25.56
									c-0.486,2.946-0.491,5.724,0.007,8.281c-11.786,4.886-23.212,9.204-34.049,12.881
									c-47.119,15.986-71.686,15.761-74.575,8.787C803.603,2231.139,808.497,2220.865,827.151,2204.171z"/>
							</g>
							<g>
								<path style="fill:#FFFFFF;" d="M819.625,2240.812c-8.97,0-14.053-1.953-15.386-5.166
									c-2.368-5.708,5.913-17.791,22.148-32.324c0.288-0.256,0.684-0.356,1.05-0.254c0.371,0.098,0.669,0.374,0.791,0.737
									l0.81,2.361c0.151,0.432,0.029,0.913-0.308,1.221c-14.097,12.832-14.683,18.403-13.779,20.581
									c0.898,2.188,5.176,5.317,23.711,1.736c18.101-3.506,44.663-12.559,74.8-25.491c0.391-0.159,0.825-0.107,1.152,0.151
									c0.327,0.256,0.488,0.671,0.42,1.082c-0.469,2.827-0.469,5.476,0,7.878c0.103,0.532-0.181,1.062-0.684,1.27
									c-11.733,4.866-23.213,9.209-34.116,12.908C852.228,2237.003,832.14,2240.812,819.625,2240.812z M826.632,2206.173
									c-17.197,15.649-21.709,25.166-20.283,28.599c2.241,5.417,23.569,7.393,73.154-9.429c10.596-3.594,21.743-7.8,33.14-12.507
									c-0.269-1.814-0.308-3.735-0.117-5.742c-29.526,12.576-55.547,21.384-73.433,24.846c-15.322,2.971-24.16,1.931-26.25-3.098
									c-1.978-4.775,2.666-12.388,13.804-22.634L826.632,2206.173z"/>
							</g>
						</g>
						<g>
							<g>
								<path style="fill:#FFFFFF;" d="M823.641,2197.088l1.124,1.558c-9.594,8.217-17.005,15.566-22.572,22.03
									C806.344,2213.894,813.481,2206.061,823.641,2197.088z"/>
							</g>
							<g>
								<path style="fill:#FFFFFF;" d="M802.194,2221.815c-0.234,0-0.469-0.071-0.674-0.22c-0.479-0.349-0.61-1.008-0.298-1.516
									c4.219-6.897,11.304-14.695,21.66-23.845c0.244-0.212,0.566-0.315,0.884-0.278c0.317,0.034,0.605,0.205,0.796,0.464
									l1.128,1.558c0.347,0.481,0.269,1.147-0.181,1.536c-9.063,7.759-16.616,15.129-22.451,21.907
									C802.833,2221.678,802.516,2221.815,802.194,2221.815z"/>
							</g>
						</g>
						<g>
							<g>
								<path style="fill:#FFFFFF;" d="M825.891,2200.19l-1.126-1.544c0.162-0.154,0.349-0.304,0.536-0.454L825.891,2200.19z"/>
							</g>
							<g>
								<path style="fill:#FFFFFF;" d="M825.89,2201.329c-0.356,0-0.703-0.166-0.923-0.469l-1.123-1.543
									c-0.337-0.461-0.278-1.101,0.137-1.497c0.181-0.176,0.396-0.349,0.606-0.518c0.293-0.237,0.684-0.31,1.055-0.2
									c0.361,0.115,0.644,0.4,0.752,0.767l0.591,1.997c0.156,0.53-0.093,1.099-0.591,1.345
									C826.232,2201.29,826.061,2201.329,825.89,2201.329z"/>
							</g>
						</g>
						<g>
							<g>
								<path style="fill:#FFFFFF;" d="M802.193,2220.676c-4.356,7.055-5.47,12.965-3.451,17.851
									c1.976,4.752,6.615,7.415,13.039,8.538c16.755,2.929,45.585-4.676,70.201-13.031c11.144-3.778,22.895-8.235,35.019-13.259
									c2.332,3.242,5.794,5.784,10.279,7.663c-17.914,7.548-35.294,13.94-51.576,18.967c-58.049,17.92-83.267,13.105-87.235,3.542
									C786.268,2245.636,789.445,2235.456,802.193,2220.676z"/>
							</g>
							<g>
								<path style="fill:#FFFFFF;" d="M812.741,2260.677c-15.186,0-23.081-3.884-25.327-9.294
									c-2.764-6.672,2.178-17.842,13.916-31.453c0.386-0.447,1.064-0.522,1.538-0.176c0.479,0.352,0.61,1.013,0.298,1.519
									c-4.16,6.736-5.264,12.236-3.369,16.819c1.704,4.092,5.801,6.733,12.178,7.849c13.55,2.378,37.627-2.124,69.644-12.986
									c10.981-3.726,22.739-8.176,34.946-13.232c0.493-0.2,1.059-0.044,1.357,0.386c2.173,3.018,5.469,5.464,9.8,7.275
									c0.425,0.178,0.698,0.591,0.698,1.05c0.005,0.459-0.273,0.874-0.693,1.052c-17.959,7.568-35.347,13.962-51.685,19.006
									C847.633,2257.262,826.984,2260.675,812.741,2260.677z M797.345,2228.614c-6.821,9.438-9.712,17.346-7.822,21.895
									c3.042,7.346,24.57,14.727,85.845-4.194c15.542-4.8,32.051-10.828,49.092-17.932c-3.257-1.677-5.889-3.76-7.837-6.218
									c-11.963,4.937-23.491,9.292-34.272,12.949c-22.578,7.661-53.184,16.143-70.767,13.074
									c-7.197-1.26-11.87-4.363-13.892-9.224C796.417,2235.89,796.305,2232.428,797.345,2228.614z"/>
							</g>
						</g>
						<g>
							<g>
								<path style="fill:#FFFFFF;" d="M979.911,2230.115c-37.844,18.954-74.381,33.224-106.102,42.19
									c-54.684,15.463-95.05,15.129-103.105-4.312c-7.309-17.641,13.602-47.23,52.202-79.159c0.395,1.767,0.829,3.527,1.288,5.291
									l-2.201-3.177c-22.407,18.929-47.558,45.281-40.074,63.302c2.89,6.975,9.736,10.739,18.789,12.322
									c21.308,3.71,54.761-4.658,76.936-11.503c19.459-6.001,40.455-13.936,62.014-23.402
									C950.385,2233.177,964.043,2232.618,979.911,2230.115z"/>
							</g>
							<g>
								<path style="fill:#FFFFFF;" d="M808.698,2284.378c-20.942,0-34.653-5.349-39.048-15.947
									c-7.261-17.524,11.89-46.855,52.529-80.476c0.303-0.251,0.703-0.332,1.099-0.2c0.371,0.129,0.654,0.444,0.742,0.83
									c0.391,1.755,0.825,3.503,1.279,5.251c0.137,0.535-0.127,1.094-0.63,1.323c-0.488,0.237-1.089,0.073-1.411-0.386
									l-1.484-2.144c-21.875,18.621-45.918,44.05-38.804,61.182c2.519,6.082,8.55,9.998,17.93,11.636
									c20.781,3.63,53.008-4.241,76.406-11.467c19.38-5.977,40.205-13.835,61.89-23.357c0.195-0.088,0.415-0.117,0.62-0.085
									c10.557,1.479,23.989,0.967,39.922-1.548c0.527-0.083,1.089,0.242,1.26,0.776c0.171,0.537-0.073,1.116-0.571,1.367
									c-36.645,18.352-73.403,32.966-106.304,42.268C848.175,2280.738,825.978,2284.378,808.698,2284.378z M790.563,2221.322
									c-16.602,19.187-23.335,35.3-18.804,46.235c7.524,18.169,45.571,19.536,101.738,3.652
									c30.864-8.726,65.146-22.153,99.541-38.965c-12.954,1.633-24.097,1.838-33.223,0.596
									c-21.66,9.497-42.461,17.344-61.836,23.318c-23.643,7.3-56.25,15.232-77.471,11.536c-10.2-1.782-16.807-6.16-19.648-13.008
									C776.847,2245.016,781.75,2233.165,790.563,2221.322z"/>
							</g>
						</g>
						<g>
							<g>
								<path style="fill:#FFFFFF;" d="M917.001,2220.774c-12.124,5.024-23.874,9.481-35.019,13.259
									c-24.615,8.355-53.446,15.96-70.201,13.031c-6.424-1.123-11.063-3.786-13.039-8.538c-2.019-4.886-0.905-10.795,3.451-17.851
									c5.567-6.465,12.978-13.814,22.572-22.03l1.126,1.544c0.406,1.334,0.827,2.656,1.26,3.981
									c-18.654,16.695-23.548,26.968-21.856,31.039c2.89,6.975,27.457,7.199,74.575-8.787
									c10.837-3.677,22.263-7.995,34.049-12.881c0.237,1.276,0.596,2.49,1.078,3.655
									C915.526,2218.468,916.194,2219.665,917.001,2220.774z"/>
								<path style="fill:#FFFFFF;" d="M819.933,2248.834c-3.013,0-5.815-0.205-8.35-0.647c-7.197-1.26-11.87-4.363-13.892-9.224
									c-2.163-5.234-0.972-11.587,3.53-18.887c6.02-7.009,13.652-14.463,22.803-22.297c0.244-0.205,0.562-0.295,0.874-0.266
									c0.317,0.037,0.601,0.205,0.791,0.461l1.123,1.543c0.073,0.103,0.132,0.217,0.166,0.339c0.405,1.331,0.83,2.644,1.255,3.962
									c0.142,0.43,0.015,0.901-0.322,1.201c-18.252,16.335-23.022,26.235-21.563,29.751c2.241,5.417,23.569,7.393,73.154-9.429
									c10.854-3.682,22.29-8.008,33.979-12.854c0.313-0.132,0.679-0.11,0.977,0.049c0.303,0.164,0.513,0.457,0.576,0.793
									c0.229,1.216,0.562,2.336,1.016,3.428c0.498,1.201,1.133,2.327,1.87,3.347c0.205,0.283,0.268,0.642,0.176,0.979
									c-0.098,0.334-0.342,0.61-0.664,0.742c-12.251,5.076-24.058,9.546-35.083,13.286
									C863.029,2241.671,837.824,2248.834,819.933,2248.834z M824.572,2200.316c-8.647,7.466-15.879,14.561-21.514,21.104
									c-4.053,6.589-5.156,12.09-3.262,16.672c1.704,4.092,5.801,6.733,12.178,7.849c13.54,2.38,37.622-2.117,69.644-12.986
									c10.596-3.594,21.914-7.866,33.662-12.703c-0.508-0.828-0.952-1.704-1.333-2.617c-0.337-0.808-0.62-1.653-0.845-2.524
									c-11.299,4.658-22.349,8.823-32.866,12.39c-48.081,16.313-72.803,15.84-75.996,8.145
									c-2.339-5.642,5.728-17.517,21.597-31.829c-0.332-1.035-0.664-2.07-0.981-3.113L824.572,2200.316z"/>
							</g>
							<g>
								<path style="fill:#FFFFFF;" d="M824.765,2198.646c-9.594,8.217-17.005,15.566-22.572,22.03
									c4.151-6.782,11.288-14.615,21.448-23.588L824.765,2198.646z"/>
								<path style="fill:#FFFFFF;" d="M802.194,2221.815c-0.234,0-0.469-0.071-0.674-0.22c-0.479-0.349-0.61-1.008-0.298-1.516
									c4.219-6.897,11.304-14.695,21.66-23.845c0.244-0.212,0.566-0.315,0.884-0.278c0.317,0.034,0.605,0.205,0.796,0.464
									l1.128,1.558c0.347,0.481,0.269,1.147-0.181,1.536c-9.063,7.759-16.616,15.129-22.451,21.907
									C802.833,2221.678,802.516,2221.815,802.194,2221.815z"/>
							</g>
							<g>
								<path style="fill:#FFFFFF;" d="M825.891,2200.19l2.25,3.102c-0.335,0.292-0.669,0.585-0.991,0.879
									C826.718,2202.846,826.298,2201.524,825.891,2200.19z"/>
								<path style="fill:#FFFFFF;" d="M827.15,2205.311c-0.098,0-0.195-0.012-0.288-0.039c-0.376-0.098-0.679-0.381-0.796-0.75
									c-0.435-1.333-0.859-2.661-1.265-4.001c-0.161-0.535,0.083-1.106,0.581-1.353c0.503-0.242,1.108-0.095,1.431,0.352
									l2.251,3.103c0.347,0.476,0.273,1.135-0.171,1.523l-0.972,0.864C827.706,2205.206,827.433,2205.311,827.15,2205.311z"/>
							</g>
							<g>
								<path style="fill:#FFFFFF;" d="M1051.396,2148.489c-23.624,16.331-52.11,33.062-82.4,48.354
									c-17.611,8.892-35.157,16.968-51.996,23.932c-0.807-1.109-1.474-2.307-2.004-3.578c-0.481-1.165-0.841-2.378-1.078-3.655
									c16.848-6.935,34.432-15.017,52.085-23.93c30.003-15.16,58.21-31.715,81.554-47.87
									c41.764-28.906,57.67-49.575,54.791-56.534c-1.73-4.161-12.295-6.808-36.816-1.776l-0.987-5.884l-0.33-1.952
									c12.85-2.637,22.911-3.475,30.286-2.509c7.623,1.01,12.376,3.946,14.399,8.804
									C1116.033,2099.093,1081.559,2127.603,1051.396,2148.489z"/>
								<path style="fill:#FFFFFF;" d="M916.998,2221.915c-0.356,0-0.703-0.168-0.923-0.471c-0.845-1.162-1.558-2.444-2.129-3.809
									c-0.508-1.223-0.894-2.529-1.147-3.884c-0.103-0.53,0.186-1.06,0.684-1.265c16.802-6.912,34.297-14.951,52.007-23.894
									c29.966-15.139,58.12-31.665,81.421-47.788c44.038-30.481,56.65-49.688,54.385-55.159
									c-1.191-2.871-10.005-6.343-35.532-1.099c-0.313,0.063-0.62,0-0.874-0.176s-0.43-0.447-0.479-0.752l-1.318-7.834
									c-0.103-0.605,0.293-1.184,0.894-1.306c13.086-2.686,23.11-3.506,30.664-2.522c7.969,1.055,13.115,4.248,15.303,9.495
									c5.957,14.373-13.525,37.241-57.905,67.976l0,0c-23.755,16.416-52.295,33.164-82.539,48.433
									c-17.676,8.923-35.195,16.987-52.075,23.967C917.292,2221.886,917.145,2221.915,916.998,2221.915z M915.231,2214.232
									c0.21,0.876,0.479,1.711,0.82,2.527c0.381,0.918,0.84,1.792,1.367,2.61c16.563-6.88,33.735-14.797,51.065-23.545
									c30.151-15.222,58.599-31.914,82.266-48.271c42.158-29.192,62.437-52.356,57.1-65.225c-1.875-4.504-6.294-7.158-13.496-8.11
									c-6.978-0.916-16.67-0.154-28.828,2.275l0.938,5.588c20.757-4.124,34.521-3.13,36.943,2.69
									c3.154,7.625-12.69,28.486-55.195,57.908c-23.384,16.182-51.636,32.761-81.694,47.949
									C949.064,2199.442,931.813,2207.379,915.231,2214.232z M1051.398,2148.49h0.029H1051.398z"/>
							</g>
						</g>
						<g>
							<g>
								<path style="fill:#FFFFFF;" d="M939.656,2231.667c-21.558,9.465-42.554,17.401-62.014,23.402
									c-22.174,6.845-55.627,15.214-76.936,11.503c-9.053-1.583-15.899-5.347-18.789-12.322
									c-7.483-18.022,17.667-44.373,40.074-63.302l2.201,3.177c0.351,1.366,0.716,2.721,1.107,4.067
									c-0.187,0.15-0.373,0.3-0.536,0.454l-1.124-1.558c-10.161,8.973-17.297,16.806-21.448,23.588
									c-12.748,14.78-15.925,24.96-13.724,30.271c3.968,9.563,29.186,14.377,87.235-3.542
									c16.281-5.027,33.661-11.419,51.576-18.967C930.792,2229.921,934.934,2230.996,939.656,2231.667z"/>
								<path style="fill:#FFFFFF;" d="M812.575,2268.629c-4.297,0-8.354-0.288-12.065-0.935c-10.2-1.782-16.807-6.16-19.648-13.008
									c-7.744-18.655,17.695-45.43,40.396-64.609c0.249-0.205,0.547-0.308,0.889-0.259c0.317,0.042,0.601,0.217,0.786,0.481
									l2.202,3.176c0.078,0.112,0.132,0.237,0.166,0.369c0.347,1.355,0.708,2.698,1.094,4.031c0.127,0.442-0.02,0.918-0.381,1.206
									c-0.161,0.129-0.317,0.256-0.459,0.391c-0.234,0.225-0.562,0.325-0.889,0.31c-0.327-0.029-0.63-0.2-0.82-0.466l-0.391-0.537
									c-9.551,8.53-16.372,16.091-20.288,22.493c-10.933,12.698-15.996,23.574-13.643,29.238
									c3.042,7.346,24.57,14.727,85.845-4.194c16.265-5.022,33.584-11.392,51.47-18.928c0.283-0.122,0.605-0.122,0.889,0
									c3.394,1.436,7.461,2.495,12.09,3.152c0.503,0.071,0.898,0.469,0.967,0.972c0.068,0.505-0.205,0.996-0.669,1.199
									c-21.768,9.558-42.671,17.449-62.134,23.45C858.473,2262.181,832.848,2268.629,812.575,2268.629z M821.774,2192.63
									c-21.875,18.621-45.918,44.05-38.804,61.182c2.519,6.082,8.55,9.998,17.93,11.636c20.781,3.63,53.008-4.241,76.406-11.467
									c18.335-5.654,37.964-12.996,58.398-21.836c-3.101-0.627-5.923-1.455-8.418-2.473
									c-17.803,7.485-35.044,13.818-51.245,18.821c-58.696,18.118-84.282,13.374-88.628,2.891
									c-2.764-6.672,2.178-17.842,13.916-31.453c4.111-6.748,11.196-14.546,21.553-23.696c0.176-0.151,0.386-0.247,0.61-0.276
									c-0.117-0.449-0.234-0.901-0.352-1.353L821.774,2192.63z"/>
							</g>
							<g>
								<g>
									<path style="fill:#FFFFFF;" d="M823.641,2197.088l1.124,1.558c-9.594,8.217-17.005,15.566-22.572,22.03
										C806.344,2213.894,813.481,2206.061,823.641,2197.088z"/>
								</g>
								<g>
									<path style="fill:#FFFFFF;" d="M802.194,2221.815c-0.234,0-0.469-0.071-0.674-0.22c-0.479-0.349-0.61-1.008-0.298-1.516
										c4.219-6.897,11.304-14.695,21.66-23.845c0.244-0.212,0.566-0.315,0.884-0.278c0.317,0.034,0.605,0.205,0.796,0.464
										l1.128,1.558c0.347,0.481,0.269,1.147-0.181,1.536c-9.063,7.759-16.616,15.129-22.451,21.907
										C802.833,2221.678,802.516,2221.815,802.194,2221.815z"/>
								</g>
							</g>
							<g>
								<path style="fill:#FFFFFF;" d="M824.193,2194.125l2.18,3.146c-0.363,0.315-0.724,0.617-1.073,0.921
									C824.909,2196.846,824.544,2195.491,824.193,2194.125z"/>
								<path style="fill:#FFFFFF;" d="M825.299,2199.332c-0.107,0-0.22-0.015-0.322-0.046c-0.376-0.112-0.664-0.403-0.771-0.776
									c-0.396-1.357-0.767-2.725-1.113-4.104c-0.137-0.535,0.132-1.089,0.63-1.318c0.503-0.232,1.089-0.068,1.411,0.388
									l2.178,3.147c0.332,0.479,0.249,1.128-0.19,1.509l-1.079,0.925C825.831,2199.237,825.568,2199.332,825.299,2199.332z"/>
							</g>
							<g>
								<path style="fill:#FFFFFF;" d="M1068.643,2158.618c-26.266,19.238-58.208,38.521-92.376,55.774
									c-12.268,6.206-24.525,11.978-36.612,17.275c-4.722-0.671-8.865-1.746-12.377-3.23c15.071-6.333,30.525-13.483,45.998-21.29
									c33.825-17.074,65.419-36.152,91.385-55.161c50.24-36.77,63.426-60.989,59.471-70.549
									c-2.202-5.297-11.226-9.302-29.631-8.351c-8.095,0.424-18.006,1.806-29.956,4.461c-0.657,0.152-1.327,0.301-1.997,0.451
									l-1.463-7.792c27.619-6.343,62.128-10.106,69.599,7.914C1140.395,2101.541,1095.987,2138.601,1068.643,2158.618z"/>
								<path style="fill:#FFFFFF;" d="M939.655,2232.806c-0.054,0-0.107-0.005-0.161-0.012c-4.819-0.684-9.077-1.797-12.656-3.308
									c-0.42-0.178-0.698-0.593-0.693-1.05c0-0.459,0.273-0.874,0.698-1.05c15.083-6.34,30.537-13.494,45.923-21.257
									c33.731-17.026,65.278-36.067,91.226-55.063c53.149-38.896,62.148-61.794,59.087-69.194
									c-2.324-5.591-13.022-8.44-28.516-7.646c-8.501,0.444-18.516,1.936-29.766,4.436l-1.992,0.449
									c-0.322,0.068-0.625,0.012-0.879-0.159c-0.259-0.168-0.439-0.437-0.493-0.742l-1.465-7.793
									c-0.117-0.601,0.269-1.184,0.864-1.321c28.042-6.438,63.13-10.181,70.908,8.589c10.005,24.128-34.814,61.641-62.422,81.855
									l0,0c-26.309,19.268-58.306,38.586-92.539,55.872c-12.129,6.135-24.468,11.956-36.665,17.3
									C939.967,2232.774,939.811,2232.806,939.655,2232.806z M930.348,2228.377c2.72,0.913,5.781,1.621,9.146,2.114
									c12.065-5.291,24.263-11.05,36.26-17.117c34.121-17.229,66.011-36.479,92.217-55.676l0,0
									c27.07-19.817,71.069-56.45,61.66-79.141c-7.075-17.075-40.22-13.582-67.222-7.485l1.045,5.554l0.84-0.19
									c11.382-2.529,21.523-4.038,30.151-4.487c22.935-1.189,29.126,5.159,30.742,9.05c4.312,10.43-9.146,34.795-59.849,71.907
									c-26.05,19.067-57.705,38.176-91.548,55.259C959.25,2215.501,944.65,2222.296,930.348,2228.377z"/>
							</g>
						</g>
						<g>
							<path style="fill:#FFFFFF;" d="M1147.43,2077.761c8.054,19.434-18.114,53.362-64.47,88.927
								c-27.445,21.057-61.974,42.692-100.665,62.23c-38.696,19.541-76.102,34.233-108.48,43.386
								c-54.687,15.461-95.048,15.129-103.102-4.305c-7.314-17.649,13.589-47.24,52.192-79.165c1.329,5.947,3.01,11.858,5.06,17.703
								c-10.669,9.716-15.911,17.409-14.062,21.87c1.883,4.544,10.882,5.139,24.974,2.414
								c27.229-5.274,73.481-22.956,124.101-48.518c50.624-25.565,92.982-52.631,114.401-71.923
								c11.078-9.985,16.554-17.89,14.671-22.434c-1.847-4.456-10.549-5.114-24.18-2.558c-2.666-5.533-5.618-10.803-8.825-15.801
								C1106.166,2058.221,1140.115,2060.112,1147.43,2077.761z"/>
							<path style="fill:#FFFFFF;" d="M808.781,2288.5c-22.91,0-37.822-6.204-42.915-18.491
								c-10.957-26.445,28.94-64.744,53.696-85.217c1.406-1.169,3.33-1.516,5.044-0.923c1.729,0.593,3.023,2.041,3.423,3.823
								c1.294,5.796,2.94,11.553,4.888,17.107c0.698,1.987,0.142,4.199-1.416,5.618c-12.573,11.448-12.725,15.728-12.715,16.077
								c0.103,0.049,1.299,0.745,5.635,0.745c2.905,0,7.197-0.359,13.457-1.567c27.593-5.344,74.619-23.755,122.734-48.052
								c48.12-24.299,91.519-51.558,113.257-71.138c13.135-11.843,13.306-16.255,13.296-16.619c-0.142,0.1-1.313-0.74-5.635-0.74
								c-2.783,0-6.846,0.327-12.695,1.426c-2.339,0.444-4.663-0.747-5.693-2.881c-2.529-5.244-5.391-10.374-8.516-15.247
								c-0.913-1.428-1.084-3.213-0.449-4.788c0.63-1.577,1.987-2.749,3.638-3.147c52.632-12.7,86.187-8.699,94.463,11.267l0,0
								c8.867,21.392-15.234,56.055-66.123,95.098c-28.682,22.007-63.779,43.706-101.494,62.751
								c-37.725,19.05-75.557,34.18-109.419,43.752C848.898,2284.803,826.456,2288.5,808.781,2288.5z M819.87,2198.28
								c-33.022,28.618-49.897,54.226-44.307,67.71c6.45,15.569,44.448,16.069,96.826,1.265
								c33.218-9.392,70.405-24.27,107.544-43.022c37.139-18.755,71.66-40.093,99.834-61.707
								c44.761-34.343,69.419-66.826,62.813-82.754l0,0c-5.488-13.24-34.053-15.693-75.278-6.697
								c1.226,2.129,2.402,4.292,3.525,6.479c10.391-1.616,22.612-1.96,26.069,6.387c2.866,6.904-2.222,15.908-16.001,28.335
								c-22.725,20.466-65.918,47.649-115.557,72.712c-49.653,25.076-96.558,43.386-125.469,48.984
								c-11.338,2.192-26.855,3.997-30.815-5.557c-2.637-6.362,1.45-14.478,12.856-25.405
								C821.183,2202.789,820.504,2200.543,819.87,2198.28z"/>
						</g>
						<g style="opacity:0.41;">
							<g>
								<path style="fill:#FFFFFF;" d="M1077.412,2110.878c-2.493,2.247-5.265,4.592-8.307,7.036
									c-1.248-3.831-2.653-7.642-4.21-11.405c-0.246-0.586-0.494-1.164-0.741-1.742c-0.906-2.13-1.855-4.219-2.85-6.267
									c-2.665-5.533-5.622-10.806-8.824-15.804c-0.385-0.601-0.778-1.193-1.172-1.786c-4.883-7.37-10.333-14.137-16.249-20.236
									c-11.053-11.411-23.722-20.551-37.377-27.128c-33.262-16.049-72.337-16.993-107.944,0.992
									c-23.769,12.005-42.773,30.816-55.977,53.385c13.078-28.144,34.497-51.817,62.583-66.001
									c35.606-17.976,74.682-17.041,107.936-0.992c13.654,6.586,26.332,15.717,37.384,27.137
									c5.908,6.098,11.359,12.856,16.242,20.226c0.402,0.593,0.787,1.194,1.172,1.794c3.21,5,6.16,10.262,8.825,15.795
									c0.994,2.057,1.943,4.146,2.85,6.267c0.255,0.579,0.502,1.156,0.74,1.751
									C1073.808,2099.489,1075.78,2105.16,1077.412,2110.878z"/>
							</g>
							<g>
								<path style="fill:#FFFFFF;" d="M1069.103,2119.054c-0.107,0-0.22-0.017-0.327-0.049c-0.356-0.107-0.64-0.383-0.757-0.74
									c-1.235-3.792-2.637-7.6-4.18-11.318l-0.664-1.567c-0.967-2.28-1.914-4.353-2.896-6.384
									c-2.593-5.376-5.537-10.654-8.76-15.684l-1.162-1.775c-4.78-7.219-10.205-13.972-16.118-20.068
									c-10.898-11.252-23.364-20.303-37.051-26.895c-34.131-16.47-73.106-16.108-106.939,0.984
									c-22.778,11.504-41.973,29.812-55.508,52.942c-0.308,0.525-0.986,0.708-1.509,0.435c-0.542-0.283-0.762-0.94-0.508-1.492
									c13.77-29.634,35.591-52.642,63.105-66.538c34.478-17.41,74.194-17.773,108.94-0.999
									c13.96,6.729,26.65,15.938,37.715,27.368c6.021,6.221,11.528,13.081,16.372,20.391c0.396,0.593,0.786,1.201,1.177,1.809
									c3.252,5.066,6.245,10.42,8.892,15.913c1.006,2.073,1.958,4.18,2.876,6.313c0.254,0.583,0.508,1.174,0.747,1.785
									c2.285,5.5,4.292,11.255,5.957,17.08c0.122,0.417-0.01,0.869-0.332,1.16c-2.52,2.271-5.332,4.651-8.359,7.078
									C1069.611,2118.966,1069.357,2119.054,1069.103,2119.054z M944.704,2020.196c18.213,0,36.436,4.102,53.472,12.324
									c13.931,6.709,26.616,15.916,37.705,27.361c6.006,6.199,11.519,13.062,16.382,20.398l1.177,1.802
									c3.271,5.11,6.265,10.466,8.892,15.923c1.001,2.065,1.958,4.172,2.871,6.318l0.747,1.75
									c1.348,3.262,2.598,6.589,3.721,9.919c2.3-1.875,4.463-3.713,6.45-5.486c-1.602-5.508-3.511-10.942-5.684-16.167
									c-0.234-0.601-0.479-1.167-0.728-1.731c-0.903-2.114-1.846-4.187-2.832-6.23c-2.607-5.413-5.557-10.686-8.755-15.674
									c-0.381-0.593-0.762-1.187-1.157-1.772c-4.775-7.202-10.195-13.953-16.118-20.071
									c-10.879-11.24-23.345-20.291-37.061-26.902c-34.111-16.47-73.086-16.106-106.929,0.981
									c-20.425,10.315-37.666,25.75-50.718,45.247c12.017-14.561,26.626-26.353,43.086-34.666
									C906.803,2024.642,925.748,2020.196,944.704,2020.196z"/>
							</g>
						</g>
						<g>
							<path style="fill:#FFFFFF;" d="M1071.458,2093.398c2.317,5.591,4.289,11.262,5.919,16.982
								c-21.419,19.293-63.777,46.358-114.401,71.923c-50.62,25.562-96.872,43.244-124.101,48.518
								c-2.854-5.101-5.452-10.457-7.769-16.048c-1.131-2.728-2.178-5.474-3.142-8.236c-2.049-5.845-3.731-11.756-5.06-17.703
								c-14.888-66.708,14.731-137.78,73.401-167.408c58.67-29.628,126.749-7.893,162.737,48.16
								c3.207,4.998,6.159,10.268,8.825,15.801C1069.131,2088,1070.328,2090.67,1071.458,2093.398z"/>
							<path style="fill:#FFFFFF;" d="M838.873,2236.07c-1.875,0-3.643-1.008-4.58-2.688c-2.959-5.288-5.659-10.874-8.037-16.597
								c-1.167-2.83-2.251-5.667-3.247-8.523c-2.08-5.933-3.843-12.087-5.225-18.286c-15.664-70.186,16.362-143.04,76.157-173.235
								c60.107-30.376,131.421-9.329,169.517,50.012c3.354,5.232,6.426,10.735,9.136,16.357c1.304,2.693,2.544,5.457,3.711,8.284
								c2.368,5.71,4.429,11.614,6.123,17.544c0.547,1.929-0.049,3.999-1.538,5.339c-22.72,20.464-65.913,47.646-115.552,72.71
								c-49.653,25.076-96.558,43.386-125.469,48.984C839.538,2236.039,839.206,2236.07,838.873,2236.07z M951.183,2013.465
								c-17.695,0-35.586,4.099-52.515,12.646c-55.562,28.059-85.273,96.013-70.64,161.58c1.294,5.796,2.94,11.553,4.888,17.107
								c0.933,2.683,1.948,5.334,3.037,7.971c1.719,4.141,3.623,8.203,5.674,12.119c27.979-6.194,72.988-24.043,118.984-47.271
								c46.357-23.411,88.335-49.568,110.781-68.958c-1.387-4.48-2.988-8.923-4.785-13.25c0-0.002,0-0.005,0-0.007
								c-1.089-2.632-2.241-5.21-3.462-7.727c-2.534-5.254-5.396-10.383-8.521-15.256
								C1030.26,2034.469,991.237,2013.465,951.183,2013.465z"/>
						</g>
					</g>
				</g>
				<g>
					<g>
						<g>
							<path style="fill:#FFB200;" d="M1060.745,2099.183c2.096,5.058,3.88,10.189,5.355,15.363
								c-19.378,17.454-57.697,41.939-103.496,65.067c-45.794,23.126-87.638,39.122-112.271,43.893
								c-2.582-4.615-4.932-9.46-7.029-14.518c-0.099-0.238-0.195-0.471-0.29-0.711c-0.916-2.235-1.765-4.48-2.553-6.74
								c-1.854-5.288-3.375-10.636-4.577-16.015c-0.049-0.218-0.099-0.436-0.144-0.655c-1.746-8-2.787-16.062-3.153-24.098
								c-0.698-15.289,1.043-30.466,4.993-44.874c9.594-34.981,32.228-65.421,64.707-81.823c32.213-16.267,67.563-15.42,97.651-0.9
								c12.354,5.955,23.819,14.22,33.819,24.547c5.349,5.52,10.276,11.636,14.695,18.303c0.36,0.535,0.711,1.074,1.06,1.62
								c2.901,4.521,5.572,9.289,7.984,14.295c0.896,1.855,1.757,3.745,2.578,5.666
								C1060.302,2098.126,1060.525,2098.651,1060.745,2099.183z"/>
						</g>
						<g>
							<path style="fill:#FF9100;" d="M1071.15,2165.486c-0.427,5.384-1.149,10.72-2.169,15.98
								c-1.419,7.392-3.419,14.631-5.955,21.633c-11.001,30.377-32.19,56.312-61.267,70.995
								c-29.14,14.716-60.849,15.426-88.906,4.683c-6.162-2.361-12.148-5.274-17.887-8.713c-4.504-2.691-8.852-5.709-13.025-9.03
								c29.292-8.281,63.132-21.573,98.14-39.251C1015.084,2204.108,1046.321,2184.536,1071.15,2165.486z"/>
						</g>
						<g>
							<path style="fill:#FF9100;" d="M1066.099,2114.545c-19.373,17.452-57.697,41.942-103.493,65.068
								c-45.796,23.125-87.643,39.122-112.276,43.896c-2.577-4.621-4.927-9.464-7.029-14.521c-0.099-0.24-0.191-0.47-0.29-0.71
								c-0.912-2.239-1.764-4.481-2.548-6.74c-1.853-5.285-3.374-10.634-4.581-16.017c-0.049-0.218-0.097-0.436-0.139-0.653
								c-1.745-8.002-2.788-16.064-3.157-24.099c-0.693-15.286,1.047-30.465,4.995-44.878c7.762-28.292,24.042-53.604,47.175-70.928
								c-6.02,10.336-10.696,21.545-13.906,33.255c-3.955,14.413-5.695,29.583-4.995,44.878c0.362,8.034,1.405,16.096,3.151,24.09
								c0.048,0.226,0.097,0.444,0.145,0.662c0.064,0.288,0.154,0.644,0.266,1.061c6.096,22.676,28.214,32.167,49.554,30.031
								c40.678-4.073,128.755-56.628,147.492-68.753C1067.76,2113.672,1065.088,2111.009,1066.099,2114.545z"/>
						</g>
						<g>
							<path style="fill:none;stroke:#293856;stroke-width:10.496;stroke-linecap:round;stroke-miterlimit:10;" d="
								M862.856,2112.528"/>
						</g>
						<g>
							<path style="fill:#D66B09;" d="M980.081,2221.785c35.003-17.676,66.241-37.248,91.07-56.298
								c-0.427,5.384-1.149,10.72-2.169,15.98c-19.105,15.459-49.65,34.58-85.236,52.551
								c-34.086,17.213-65.872,29.874-88.779,36.047c-4.504-2.691-8.852-5.709-13.025-9.03
								C911.233,2252.755,945.073,2239.463,980.081,2221.785z"/>
						</g>
						<g>
							<path style="fill:#D66B09;" d="M1060.075,2097.603c0.227,0.523,0.45,1.048,0.67,1.58c2.096,5.058,3.88,10.189,5.355,15.363
								c-19.378,17.454-57.697,41.939-103.496,65.067c-45.794,23.126-87.638,39.122-112.271,43.893
								c-2.582-4.615-4.932-9.46-7.029-14.518c-0.099-0.238-0.195-0.471-0.29-0.711c23.364-2.962,65.961-18.448,112.647-42.023
								C1004.191,2141.747,1043.844,2115.211,1060.075,2097.603z"/>
						</g>
						<g>
							<g>
								<path style="fill:#D66B09;" d="M832.397,2165.211l0.382-8.886c16.296,0.855,58.858-14.294,103.501-36.838
									c53.26-26.896,87.626-52.607,94.047-64.103l6.861,4.669c-8.496,15.212-47.701,42.348-97.554,67.523
									C893.216,2151.017,850.121,2166.142,832.397,2165.211z"/>
							</g>
						</g>
						<g>
							<g>
								<path style="fill:#D66B09;" d="M838.19,2120.292l-1.219-8.794c18.314-3.092,50.042-15.289,82.804-31.834
									c34.329-17.335,64.013-36.417,77.466-49.797l5.395,6.61c-14.02,13.943-44.485,33.591-79.507,51.276
									C889.735,2104.616,857.188,2117.084,838.19,2120.292z"/>
							</g>
						</g>
						<g>
							<g>
								<path style="fill:#D66B09;" d="M835.738,2189.315l0.005-8.897c18.699,0.01,62.677-15.846,109.436-39.458
									c49.046-24.768,90.172-52.544,100.01-67.547l6.529,5.216c-10.74,16.376-52.208,44.677-103.185,70.421
									C900.072,2173.522,855.797,2189.327,835.738,2189.315z"/>
							</g>
						</g>
						<g>
							<g>
								<path style="fill:#D66B09;" d="M913.006,2280.996l-0.153-2.211l-0.947-1.97l0.371-0.217l0.423-0.038
									c16.165-1.362,46.95-12.513,78.429-28.41c31.653-15.985,58.662-33.855,70.487-46.639l2.819,3.178
									c-12.136,13.119-39.583,31.322-71.63,47.506C960.44,2268.54,929.863,2279.575,913.006,2280.996z"/>
							</g>
						</g>
						<g>
							<path style="fill:#371A45;" d="M952.077,2291.278c-25.938,0-51.724-8.855-73.408-26.138l-7.998-6.372l9.844-2.783
								c30.024-8.489,63.638-21.934,97.197-38.884c33.579-16.958,64.785-36.245,90.244-55.776l9.355-7.18l-0.933,11.758
								c-3.887,49.084-31.577,92.336-72.256,112.878C987.536,2287.157,969.772,2291.278,952.077,2291.278z M893.634,2263.038
								c31.978,21.003,71.621,23.606,105.762,6.372c34.106-17.224,58.301-51.956,65.054-92.385
								c-23.97,17.373-52.075,34.331-82.002,49.446C952.057,2241.817,921.583,2254.354,893.634,2263.038z"/>
						</g>
						<g>
							<path style="fill:#FFD766;" d="M1129.475,2085.036c7.286,17.581-16.388,48.275-58.325,80.45
								c-24.829,19.05-56.067,38.622-91.07,56.298c-35.007,17.678-68.848,30.97-98.14,39.251
								c-49.474,13.987-85.987,13.687-93.274-3.894c-6.617-15.967,12.293-42.738,47.217-71.619
								c1.202,5.38,2.723,10.728,4.577,16.015c-9.652,8.79-14.394,15.75-12.722,19.786c1.704,4.111,9.844,4.649,22.593,2.184
								c24.633-4.771,66.477-20.767,112.271-43.893c45.799-23.128,84.118-47.614,103.496-65.067
								c10.022-9.033,14.976-16.184,13.272-20.295c-1.671-4.031-9.543-4.626-21.875-2.314c-2.412-5.006-5.083-9.773-7.984-14.295
								C1092.144,2067.358,1122.858,2069.069,1129.475,2085.036z"/>
						</g>
						<g>
							<path style="fill:#FFAA39;" d="M839.726,2199.396c0.242,0.715,0.485,1.431,0.739,2.148
								c-9.656,8.786-14.403,15.739-12.728,19.777c1.709,4.12,9.856,4.656,22.597,2.185c16.336-3.162,40.26-11.27,67.883-23.123
								c-0.44,2.665-0.444,5.178,0.006,7.491c-10.663,4.42-20.999,8.327-30.803,11.653c-42.627,14.462-64.852,14.259-67.467,7.949
								C818.422,2223.793,822.849,2214.5,839.726,2199.396z"/>
						</g>
						<g>
							<path style="fill:#FF9100;" d="M836.551,2192.989l1.017,1.409c-8.68,7.433-15.384,14.082-20.421,19.93
								C820.902,2208.192,827.358,2201.107,836.551,2192.989z"/>
						</g>
						<g>
							<path style="fill:#FF9100;" d="M838.586,2195.795l-1.019-1.397c0.147-0.14,0.315-0.275,0.484-0.411L838.586,2195.795z"/>
						</g>
						<g>
							<path style="fill:#FFAA39;" d="M817.147,2214.328c-3.941,6.383-4.949,11.729-3.122,16.149
								c1.787,4.299,5.984,6.708,11.796,7.724c15.158,2.649,41.24-4.23,63.509-11.789c10.082-3.418,20.713-7.45,31.681-11.995
								c2.109,2.933,5.241,5.233,9.299,6.932c-16.207,6.829-31.93,12.612-46.66,17.159c-52.516,16.212-75.33,11.856-78.919,3.205
								C802.74,2236.909,805.614,2227.699,817.147,2214.328z"/>
						</g>
						<g>
							<path style="fill:#FFAA39;" d="M977.924,2222.867c-34.237,17.147-67.291,30.057-95.988,38.168
								c-49.471,13.989-85.99,13.687-93.277-3.901c-6.612-15.959,12.305-42.728,47.226-71.614c0.357,1.599,0.75,3.191,1.165,4.787
								l-1.992-2.875c-20.271,17.125-43.024,40.964-36.254,57.268c2.614,6.31,8.808,9.716,16.998,11.147
								c19.277,3.357,49.541-4.214,69.602-10.407c17.605-5.429,36.599-12.608,56.102-21.171
								C951.213,2225.638,963.568,2225.132,977.924,2222.867z"/>
						</g>
						<g>
							<g>
								<path style="fill:#FFCF6E;" d="M921.011,2214.417c-10.968,4.545-21.599,8.577-31.681,11.995
									c-22.269,7.559-48.351,14.438-63.509,11.789c-5.812-1.016-10.009-3.426-11.796-7.724c-1.827-4.42-0.819-9.767,3.122-16.149
									c5.037-5.848,11.741-12.497,20.421-19.93l1.019,1.397c0.367,1.207,0.748,2.403,1.139,3.602
									c-16.876,15.104-21.303,24.397-19.773,28.08c2.614,6.31,24.839,6.513,67.467-7.949c9.804-3.326,20.141-7.233,30.803-11.653
									c0.214,1.155,0.539,2.253,0.975,3.306C919.677,2212.331,920.281,2213.414,921.011,2214.417z"/>
							</g>
							<g>
								<path style="fill:#FFEC90;" d="M837.567,2194.398c-8.68,7.433-15.384,14.082-20.421,19.93
									c3.755-6.136,10.212-13.221,19.404-21.339L837.567,2194.398z"/>
							</g>
							<g>
								<path style="fill:#FFEC90;" d="M838.586,2195.795l2.036,2.806c-0.303,0.264-0.605,0.529-0.896,0.795
									C839.334,2198.198,838.954,2197.001,838.586,2195.795z"/>
							</g>
							<g>
								<path style="fill:#FFEC90;" d="M1042.595,2149.022c-21.372,14.774-47.143,29.91-74.545,43.745
									c-15.932,8.044-31.805,15.35-47.039,21.651c-0.73-1.003-1.334-2.087-1.813-3.237c-0.435-1.054-0.761-2.152-0.975-3.306
									c15.242-6.273,31.15-13.586,47.12-21.649c27.143-13.715,52.661-28.691,73.781-43.307
									c37.783-26.15,52.173-44.85,49.568-51.145c-1.565-3.765-11.123-6.159-33.306-1.607l-0.893-5.323l-0.299-1.766
									c11.625-2.386,20.727-3.144,27.399-2.27c6.896,0.913,11.196,3.569,13.027,7.965
									C1101.07,2104.334,1069.883,2130.127,1042.595,2149.022z"/>
							</g>
						</g>
						<g>
							<g>
								<path style="fill:#FFCF6E;" d="M941.506,2224.271c-19.503,8.563-38.498,15.742-56.102,21.171
									c-20.061,6.193-50.325,13.764-69.602,10.407c-8.19-1.432-14.384-4.837-16.998-11.147
									c-6.77-16.304,15.983-40.143,36.254-57.268l1.992,2.875c0.317,1.236,0.648,2.462,1.002,3.679
									c-0.169,0.135-0.338,0.271-0.484,0.411l-1.017-1.409c-9.192,8.118-15.648,15.204-19.404,21.339
									c-11.533,13.371-14.407,22.581-12.416,27.385c3.589,8.651,26.404,13.007,78.919-3.205
									c14.729-4.548,30.453-10.331,46.66-17.159C933.487,2222.692,937.235,2223.665,941.506,2224.271z"/>
							</g>
							<g>
								<path style="fill:#FFAA39;" d="M836.551,2192.989l1.017,1.409c-8.68,7.433-15.384,14.082-20.421,19.93
									C820.902,2208.192,827.358,2201.107,836.551,2192.989z"/>
							</g>
							<g>
								<path style="fill:#FFEC90;" d="M837.05,2190.308l1.973,2.846c-0.329,0.285-0.655,0.558-0.971,0.833
									C837.698,2192.77,837.367,2191.544,837.05,2190.308z"/>
							</g>
							<g>
								<path style="fill:#FFEC90;" d="M1058.198,2158.186c-23.762,17.404-52.659,34.849-83.57,50.457
									c-11.099,5.614-22.187,10.836-33.122,15.628c-4.272-0.607-8.02-1.58-11.197-2.922c13.634-5.729,27.615-12.198,41.613-19.26
									c30.6-15.447,59.183-32.706,82.674-49.903c45.451-33.266,57.38-55.175,53.802-63.824
									c-1.992-4.792-10.156-8.415-26.806-7.555c-7.323,0.383-16.29,1.634-27.1,4.036c-0.595,0.137-1.2,0.272-1.806,0.408
									l-1.323-7.049c24.987-5.738,56.206-9.143,62.964,7.159C1123.11,2106.549,1082.936,2140.077,1058.198,2158.186z"/>
							</g>
						</g>
						<g>
							<path style="fill:#371A45;" d="M823.161,2276.168c-20.981,0-34.653-5.71-39.341-17.017
								c-10.039-24.229,26.216-59.065,48.721-77.676l6.602-5.457l1.865,8.359c1.162,5.198,2.642,10.388,4.404,15.425l1.147,3.276
								l-2.563,2.336c-9.209,8.386-10.938,12.456-11.265,13.716c1.172,0.461,5.264,1.411,16.607-0.776
								c24.922-4.827,67.417-21.467,110.903-43.428c43.486-21.96,82.705-46.592,102.349-64.28
								c9.663-8.711,11.455-12.917,11.787-14.204c-1.147-0.454-5.112-1.375-15.913,0.652l-3.95,0.74l-1.743-3.621
								c-2.28-4.736-4.863-9.358-7.676-13.738l-3.979-6.206l7.168-1.731c47.91-11.553,78.447-7.827,86.04,10.486l0,0
								c8.115,19.583-13.75,51.157-59.98,86.624c-25.967,19.924-57.744,39.573-91.895,56.821
								c-34.155,17.246-68.413,30.947-99.082,39.617C859.533,2272.826,839.206,2276.168,823.161,2276.168z M832.872,2194.959
								c-29.316,25.525-44.297,48.252-39.355,60.173c5.737,13.838,39.888,14.172,86.997,0.854
								c30.024-8.491,63.638-21.936,97.197-38.887c33.579-16.958,64.785-36.245,90.244-55.776
								c40.308-30.925,62.549-60.081,56.67-74.28l0,0c-4.839-11.677-30.195-13.821-66.87-5.903c0.933,1.636,1.831,3.293,2.695,4.968
								c9.512-1.443,20.552-1.624,23.77,6.133c2.72,6.563-1.787,14.644-14.604,26.204c-20.596,18.545-59.712,43.162-104.648,65.852
								c-44.956,22.705-87.436,39.287-113.638,44.36c-10.42,2.021-24.707,3.662-28.438-5.325
								c-2.495-6.013,1.064-13.276,11.518-23.323C833.869,2198.338,833.356,2196.651,832.872,2194.959z"/>
						</g>
						<g style="opacity:0.41;">
							<g>
								<path style="fill:#FFFFFF;" d="M1066.131,2114.996c-2.255,2.032-4.763,4.154-7.516,6.365
									c-1.129-3.466-2.4-6.914-3.809-10.318c-0.223-0.531-0.447-1.053-0.67-1.576c-0.819-1.927-1.679-3.817-2.578-5.67
									c-2.411-5.005-5.086-9.776-7.983-14.298c-0.348-0.543-0.704-1.079-1.061-1.615c-4.417-6.668-9.348-12.789-14.7-18.307
									c-9.999-10.324-21.461-18.592-33.814-24.542c-30.091-14.52-65.442-15.373-97.654,0.897
									c-21.503,10.86-38.695,27.878-50.641,48.297c11.831-25.461,31.208-46.878,56.617-59.71
									c32.212-16.262,67.563-15.417,97.647-0.898c12.352,5.958,23.822,14.219,33.82,24.551
									c5.345,5.516,10.276,11.63,14.693,18.298c0.364,0.537,0.712,1.08,1.06,1.624c2.904,4.523,5.573,9.284,7.983,14.29
									c0.899,1.861,1.758,3.751,2.578,5.67c0.231,0.523,0.455,1.046,0.67,1.584
									C1062.87,2104.693,1064.655,2109.823,1066.131,2114.996z"/>
							</g>
						</g>
						<g>
							<path style="fill:#371A45;" d="M847.609,2229.381l-1.855-3.311c-2.676-4.785-5.132-9.856-7.3-15.071
								c-1.06-2.566-2.041-5.139-2.949-7.732c-1.894-5.42-3.491-11.006-4.741-16.604c-14.224-63.713,14.863-129.858,69.155-157.278
								c54.644-27.576,119.409-8.477,154.009,45.422c3.042,4.739,5.83,9.734,8.296,14.851c1.182,2.446,2.31,4.951,3.369,7.512l0,0
								c2.148,5.178,4.019,10.542,5.557,15.938l0.894,3.147l-2.432,2.19c-20.591,18.545-59.707,43.162-104.644,65.852
								c-44.956,22.705-87.436,39.287-113.638,44.36L847.609,2229.381z M951.93,2027.374c-15.933,0-32.041,3.687-47.28,11.382
								c-50.068,25.286-76.836,86.528-63.643,145.623c1.162,5.198,2.642,10.388,4.404,15.425c0.845,2.41,1.758,4.802,2.739,7.18
								c1.504,3.621,3.159,7.17,4.941,10.586c25.298-5.671,65.776-21.748,107.143-42.642c41.733-21.072,79.531-44.604,99.873-62.102
								c-1.226-3.938-2.637-7.837-4.214-11.631v-0.007c-0.981-2.373-2.026-4.695-3.125-6.965c-2.28-4.744-4.863-9.365-7.676-13.745
								C1023.146,2046.292,988,2027.374,951.93,2027.374z"/>
						</g>
					</g>
				</g>
			</g>
		</g>
	</g>
</g>
</svg>
